<svg width="26" height="19" viewBox="0 0 26 19" fill="none" xmlns="http://www.w3.org/2000/svg">
<path d="M25.1417 0.803664C23.9245 -0.267888 22.0535 -0.267888 20.8909 0.803664C9.37365 11.5702 9.37367 11.5702 9.37367 11.5702C5.12284 7.53913 5.12286 7.53913 5.12286 7.53913C4.54155 6.99485 3.77855 6.75673 2.99741 6.75673C2.23444 6.75673 1.45327 6.99485 0.871965 7.53913C-0.290655 8.67871 -0.290655 10.4136 0.871965 11.5022C7.2482 17.4552 7.24822 17.4552 7.24822 17.4552C7.82953 17.9995 8.59254 18.3057 9.37367 18.3057C10.1366 18.3057 10.9177 17.9995 11.499 17.4552C25.1416 4.78371 25.1417 4.78371 25.1417 4.78371C26.2861 3.67814 26.2861 1.87522 25.1417 0.803664Z" fill="#BAD036"/>
</svg>
