<svg width="95" height="80" viewBox="0 0 95 80" fill="none" xmlns="http://www.w3.org/2000/svg">
<g clip-path="url(#clip0_69_28)">
<path d="M59.3529 0.901116C44.476 3.55866 36.6118 17.2463 38.8267 36.6615C38.8643 36.9893 39.0211 37.2918 39.2673 37.5114C39.5134 37.7311 39.8318 37.8525 40.1617 37.8525C40.2127 37.8553 40.2637 37.8553 40.3146 37.8525C40.6683 37.8115 40.9913 37.6317 41.2126 37.3528C41.4339 37.0738 41.5355 36.7184 41.4949 36.3646C38.4286 9.4888 54.7489 4.44747 59.824 3.54799C61.6674 3.21688 63.5364 3.04854 65.4093 3.04493C71.5094 2.95984 77.4425 5.0381 82.1562 8.91107C84.9608 11.3459 87.2455 14.3214 88.8737 17.6594C90.502 20.9975 91.4404 24.6296 91.6327 28.3387C92.4273 38.7893 86.5932 51.2966 75.6252 62.6556C74.1038 64.2781 72.6657 65.9768 71.3163 67.745C68.0188 71.9259 65.1817 75.5238 59.7991 77.0259C59.0782 77.2239 58.3336 77.3226 57.586 77.3192C56.1682 77.3138 54.7704 76.9848 53.499 76.3572C52.2277 75.7297 51.1163 74.8203 50.2497 73.6982C48.2339 71.2095 47.7451 68.5769 47.114 64.4919C47.0665 64.1743 46.9061 63.8844 46.6622 63.6754C46.4183 63.4665 46.1073 63.3524 45.7861 63.3542C45.7165 63.3543 45.647 63.3597 45.5781 63.3702C45.2265 63.4254 44.9111 63.6176 44.7009 63.9048C44.4907 64.192 44.4028 64.5507 44.4565 64.9025C45.0377 68.6604 45.587 72.2103 48.1592 75.3905C49.2785 76.824 50.7095 77.9838 52.3438 78.7818C53.978 79.5799 55.7726 79.9952 57.5913 79.9963C58.5788 79.9997 59.5623 79.8706 60.5155 79.6123C66.7372 77.8738 70.1324 73.5684 73.4103 69.4212C74.7078 67.7191 76.0901 66.0834 77.5522 64.5204C89.0516 52.6103 95.1506 39.3457 94.3063 28.1325C94.0855 24.0623 93.0463 20.0784 91.2506 16.419C89.455 12.7596 86.9399 9.49992 83.8556 6.83481C78.6149 2.58137 72.0536 0.290977 65.3044 0.358942V0.00341797V0.358942C63.3085 0.364828 61.317 0.546251 59.3529 0.901116V0.901116Z" fill="#BAD036"/>
<path d="M78.2848 17.6375C76.5533 15.8214 74.4173 14.44 72.0507 13.6059C70.3723 13.0151 68.6056 12.7145 66.8263 12.7171C63.0109 12.7272 59.3143 14.0448 56.3525 16.4501C54.5038 18.0895 53.0067 20.0867 51.9517 22.3211C50.8967 24.5555 50.3057 26.9806 50.2144 29.4498C50.0656 30.9761 50.2915 32.5156 50.8727 33.9347C51.4538 35.3538 52.3726 36.6096 53.5492 37.5931C54.3338 38.4682 54.9245 39.4992 55.2826 40.6186C55.6407 41.738 55.7582 42.9205 55.6273 44.0885C55.4584 45.4318 54.9828 46.7182 54.2372 47.8482C53.437 49.1356 52.8735 50.5557 52.5733 52.0416C52.3102 53.387 52.4821 54.7812 53.064 56.0225C53.646 57.2637 54.6078 58.2876 55.8104 58.9458C56.7568 59.4592 57.8066 59.7533 58.8821 59.8062C59.4059 59.8001 59.927 59.7303 60.4339 59.5982C61.3971 59.357 62.2947 58.9048 63.0617 58.2743C63.8288 57.6437 64.4461 56.8506 64.8691 55.9523C64.9647 55.7477 65.0072 55.5222 64.9926 55.2967C64.978 55.0713 64.9069 54.8532 64.7857 54.6625C64.6645 54.4719 64.4972 54.3149 64.2993 54.206C64.1013 54.0971 63.8791 54.0399 63.6532 54.0396C63.3972 54.0403 63.1467 54.1136 62.9308 54.2512C62.7149 54.3887 62.5426 54.5847 62.4338 54.8164C62.1786 55.3493 61.8099 55.8198 61.3536 56.1951C60.8972 56.5704 60.3643 56.8412 59.7922 56.9887C59.5024 57.0686 59.2039 57.1128 58.9034 57.1202C58.2057 57.062 57.5294 56.8501 56.9231 56.4998C56.2594 56.0836 55.7403 55.4727 55.4364 54.7506C55.1326 54.0285 55.059 53.2302 55.2255 52.4646C55.4816 51.2891 55.9419 50.1676 56.5854 49.1511C57.5376 47.6714 58.1277 45.9882 58.3079 44.2378C58.4694 42.6792 58.2918 41.1041 57.7874 39.6206C57.283 38.137 56.4636 36.7801 55.3855 35.643C54.5016 34.9361 53.8092 34.0188 53.3716 32.975C52.934 31.9312 52.7653 30.7943 52.8808 29.6684C53.0097 27.9614 53.3568 26.2779 53.9136 24.6591C53.9561 24.6324 53.9971 24.6033 54.0363 24.572C55.5589 23.3074 57.4788 22.6207 59.458 22.6326C60.6218 22.6246 61.7737 22.8671 62.8355 23.3437C64.1424 23.9654 65.2315 24.9666 65.9608 26.2166C66.6901 27.4666 67.0258 28.9074 66.924 30.351C66.924 30.7075 67.0656 31.0493 67.3176 31.3013C67.5697 31.5533 67.9115 31.6949 68.2679 31.6949C68.6243 31.6949 68.9662 31.5533 69.2182 31.3013C69.4702 31.0493 69.6118 30.7075 69.6118 30.351C69.7106 28.3916 69.2235 26.447 68.2126 24.7656C67.2017 23.0841 65.7128 21.7419 63.9359 20.9101C62.5222 20.2687 60.9873 19.9383 59.4349 19.9413C58.3378 19.9434 57.2467 20.1051 56.1961 20.4213C56.7379 19.7266 57.3556 19.0946 58.0377 18.537C60.5394 16.5196 63.6569 15.4204 66.8707 15.4226C68.3275 15.4151 69.775 15.6555 71.1512 16.1336C73.1163 16.826 74.8899 17.9729 76.3276 19.4809C80.5299 23.9107 81.4436 32.7686 78.283 38.4357C78.1937 38.5899 78.1359 38.7604 78.113 38.9372C78.0902 39.114 78.1028 39.2936 78.15 39.4655C78.1973 39.6374 78.2783 39.7982 78.3883 39.9385C78.4983 40.0788 78.6351 40.1958 78.7907 40.2827C78.9464 40.3696 79.1178 40.4247 79.2949 40.4447C79.4721 40.4647 79.6514 40.4493 79.8226 40.3993C79.9937 40.3494 80.1532 40.2658 80.2917 40.1536C80.4302 40.0414 80.5451 39.9028 80.6295 39.7458C84.3749 33.0495 83.2977 22.9224 78.2848 17.6375Z" fill="#BAD036"/>
<path d="M34.1694 67.6473H34.0805C33.7871 67.6275 33.5087 67.5099 33.2899 67.3134C33.0711 67.1168 32.9245 66.8526 32.8735 66.5629L26.8296 32.1695L21.3492 61.358C21.2932 61.6533 21.1377 61.9204 20.9087 62.115C20.6797 62.3096 20.3909 62.4199 20.0905 62.4276C19.7901 62.4353 19.4961 62.3399 19.2575 62.1573C19.0188 61.9746 18.8499 61.7158 18.7788 61.4238L13.7926 40.7999L10.1484 51.2718C10.0595 51.5312 9.89179 51.7563 9.66869 51.9156C9.44559 52.075 9.17827 52.1606 8.90411 52.1606H1.31545C1.13875 52.1671 0.962558 52.138 0.797398 52.0748C0.632238 52.0117 0.481502 51.9159 0.354197 51.7932C0.226892 51.6705 0.125633 51.5234 0.0564698 51.3606C-0.0126931 51.1979 -0.0483398 51.0229 -0.0483398 50.8461C-0.0483398 50.6693 -0.0126931 50.4943 0.0564698 50.3315C0.125633 50.1688 0.226892 50.0217 0.354197 49.899C0.481502 49.7763 0.632238 49.6805 0.797398 49.6174C0.962558 49.5542 1.13875 49.525 1.31545 49.5315H7.97085L12.7704 35.723C12.8602 35.4518 13.0369 35.2178 13.2731 35.0572C13.5093 34.8965 13.7918 34.8181 14.077 34.8342C14.3607 34.8481 14.6322 34.9534 14.8511 35.1345C15.0699 35.3155 15.2243 35.5625 15.2911 35.8385L19.8933 54.8591L25.5817 24.5773C25.6396 24.277 25.8003 24.0063 26.0361 23.8116C26.272 23.617 26.5683 23.5106 26.8741 23.5107V23.5107C27.182 23.5128 27.4795 23.6227 27.7146 23.8215C27.9498 24.0203 28.1078 24.2953 28.1611 24.5986L34.5303 60.8621L37.8526 50.4559C37.937 50.1916 38.1028 49.9607 38.3263 49.7963C38.5498 49.6318 38.8195 49.5423 39.097 49.5404H44.9845C45.1611 49.5339 45.3373 49.5631 45.5025 49.6263C45.6677 49.6894 45.8184 49.7852 45.9457 49.9079C46.073 50.0306 46.1743 50.1777 46.2434 50.3404C46.3126 50.5032 46.3482 50.6782 46.3482 50.855C46.3482 51.0318 46.3126 51.2068 46.2434 51.3695C46.1743 51.5323 46.073 51.6794 45.9457 51.8021C45.8184 51.9248 45.6677 52.0206 45.5025 52.0837C45.3373 52.1468 45.1611 52.176 44.9845 52.1695H40.0818L35.428 66.746C35.3404 67.01 35.1714 67.2394 34.9453 67.4014C34.7192 67.5633 34.4475 67.6494 34.1694 67.6473V67.6473Z" fill="#708CB1"/>
</g>
<defs>
<clipPath id="clip0_69_28">
<rect width="94.3845" height="80" fill="white"/>
</clipPath>
</defs>
</svg>
