<svg width="70" height="80" viewBox="0 0 70 80" fill="none" xmlns="http://www.w3.org/2000/svg">
<path d="M69.1669 48.323L64.095 31.8094C64.0346 23.4294 60.7682 15.5365 54.8823 9.56012C48.9473 3.53437 41.0256 0.140799 32.5766 0.00439394C26.5687 -0.0941992 20.6939 1.46814 15.5859 4.51781C14.845 4.96015 14.603 5.91936 15.0455 6.66029C15.488 7.40123 16.4472 7.64326 17.188 7.20076C21.7964 4.44921 27.1012 3.0411 32.5262 3.12875C48.2106 3.38203 60.9708 16.3545 60.9708 32.0464C60.9708 32.2019 60.994 32.3566 61.0397 32.5051L66.1758 49.2282H59.1672C58.3043 49.2282 57.6048 49.9277 57.6048 50.7907V59.4183C57.6048 63.5297 54.2599 66.8745 50.1485 66.8745H38.215C34.5 66.8745 31.0076 65.4278 28.3807 62.8009C27.7706 62.1909 26.7812 62.1909 26.1709 62.8009C25.5607 63.4111 25.5607 64.4004 26.1709 65.0106C29.2798 68.1195 33.3788 69.8782 37.7566 69.9931L35.461 78.0066C35.2233 78.8363 35.7032 79.7013 36.5327 79.9389C36.6764 79.9802 36.8213 79.9997 36.9638 79.9997C37.6433 79.9997 38.2686 79.5528 38.465 78.8671L41.0053 69.9993H50.1484C55.9829 69.9993 60.7296 65.2526 60.7296 59.4181V52.353H66.1886C67.1874 52.353 68.1006 51.8924 68.6942 51.0891C69.288 50.2861 69.4602 49.2779 69.1669 48.323V48.323Z" fill="#BAD036"/>
<path d="M3.12912 31.5341C3.22084 26.1361 4.79192 20.906 7.67222 16.4093C8.13769 15.6828 7.92597 14.7164 7.19941 14.2509C6.4727 13.7854 5.50645 13.9971 5.04098 14.7237C1.84772 19.7087 0.10617 25.5032 0.00476383 31.481C-0.0983606 37.542 1.47694 44.306 4.32677 50.0388C7.06644 55.5503 7.79878 61.8061 6.38879 67.6536L3.87896 78.0621C3.67662 78.901 4.19271 79.7451 5.03161 79.9472C5.15473 79.9769 5.27786 79.9911 5.39926 79.9911C6.10442 79.9911 6.74426 79.5104 6.91691 78.7946L9.42674 68.3861C11.0086 61.8256 10.1913 54.8158 7.12519 48.6477C4.49068 43.3487 3.03428 37.1109 3.12912 31.5341V31.5341Z" fill="#BAD036"/>
<path d="M9.72326 9.00535C9.09826 9.60051 9.0742 10.5896 9.66935 11.2144L9.67092 11.216C9.97779 11.5383 10.3892 11.7005 10.8014 11.7005C11.1886 11.7005 11.5764 11.5572 11.879 11.2691C12.504 10.6739 12.5273 9.6841 11.9322 9.05926C11.3372 8.43426 10.3481 8.41004 9.72326 9.00535V9.00535Z" fill="#BAD036"/>
<path d="M37.765 52.5388C38.628 52.5388 39.3275 51.8393 39.3275 50.9763V43.7534V43.7533C39.3275 41.8519 40.1903 40.0498 41.695 38.8094C45.2084 35.9125 47.2234 31.6424 47.2234 27.0938C47.2234 23.1312 45.7056 19.3815 42.9497 16.5354C40.2003 13.6964 36.5144 12.0586 32.571 11.9237C28.2879 11.7775 24.3018 13.2919 21.3482 16.1881C18.3959 19.0832 16.8045 23.0363 16.867 27.3191C16.9328 31.8243 18.9803 36.0394 22.4846 38.8836C23.9315 40.0578 24.7613 41.8328 24.7613 43.7534V50.9763C24.7613 51.8393 25.4609 52.5388 26.3238 52.5388H37.765ZM36.2025 49.4138H27.8863V45.3159H36.2025V49.4138ZM24.4538 36.4574C21.6703 34.1981 20.0437 30.8508 19.9915 27.2738C19.9417 23.8545 21.2004 20.7099 23.5362 18.4196C25.8731 16.1279 29.0423 14.9306 32.4643 15.0472C38.988 15.27 44.0983 20.5615 44.0983 27.094C44.0983 30.7061 42.4976 34.0975 39.7069 36.3984C37.8939 37.8931 36.7103 39.9478 36.3327 42.1912H33.6068V32.6419C35.45 31.995 36.7756 30.2383 36.7756 28.1768C36.7756 25.5679 34.6532 23.4454 32.0443 23.4454C29.4354 23.4454 27.3129 25.5679 27.3129 28.1768C27.3129 30.2383 28.6385 31.995 30.4818 32.6419V42.1911H27.7602C27.3924 39.9352 26.2324 37.9006 24.4538 36.4574V36.4574ZM32.0443 29.783C31.1585 29.783 30.4379 29.0624 30.4379 28.1766C30.4379 27.2908 31.1585 26.5702 32.0443 26.5702C32.93 26.5702 33.6507 27.2908 33.6507 28.1766C33.6507 29.0624 32.93 29.783 32.0443 29.783Z" fill="#708CB1"/>
</svg>
