<svg width="19" height="17" viewBox="0 0 19 17" fill="none" xmlns="http://www.w3.org/2000/svg">
<path d="M18.4468 4.88953C18.4057 4.00587 18.2548 3.39836 18.0386 2.87194C17.8156 2.31316 17.4725 1.81289 17.023 1.39701C16.5838 0.974658 16.052 0.646472 15.4687 0.438596C14.9096 0.233892 14.2713 0.0909934 13.3381 0.0520325C12.398 0.00977195 12.0995 0 9.71497 0C7.33043 0 7.03196 0.00977195 6.09528 0.0487329C5.16207 0.0876938 4.52051 0.23072 3.96471 0.435296C3.37448 0.646472 2.84616 0.971358 2.40696 1.39701C1.96094 1.81289 1.61449 2.31646 1.39482 2.86877C1.17864 3.39836 1.02774 4.00257 0.98659 4.88623C0.94196 5.7765 0.931641 6.05912 0.931641 8.31708C0.931641 10.575 0.94196 10.8577 0.983105 11.7446C1.02425 12.6283 1.17529 13.2358 1.39147 13.7622C1.61449 14.321 1.96094 14.8213 2.40696 15.2371C2.84616 15.6595 3.37796 15.9877 3.96123 16.1956C4.52051 16.4003 5.15859 16.5432 6.09192 16.5821C7.02848 16.6212 7.32708 16.6309 9.71162 16.6309C12.0962 16.6309 12.3946 16.6212 13.3313 16.5821C14.2645 16.5432 14.9061 16.4003 15.4619 16.1956C16.6422 15.7634 17.5754 14.8798 18.0318 13.7622C18.2478 13.2326 18.3988 12.6283 18.44 11.7446C18.4811 10.8577 18.4915 10.575 18.4915 8.31708C18.4915 6.05912 18.488 5.7765 18.4468 4.88953ZM16.8652 11.6796C16.8274 12.4919 16.6834 12.9305 16.5633 13.2229C16.2681 13.9474 15.6609 14.5224 14.8958 14.8019C14.587 14.9156 14.1204 15.052 13.266 15.0877C12.3397 15.1267 12.0618 15.1364 9.71845 15.1364C7.37506 15.1364 7.09375 15.1267 6.17073 15.0877C5.31298 15.052 4.8498 14.9156 4.54101 14.8019C4.16025 14.6686 3.81367 14.4574 3.53236 14.1813C3.24072 13.9116 3.01771 13.5867 2.87698 13.2262C2.7569 12.9338 2.61282 12.4919 2.57516 11.6829C2.53388 10.8058 2.5237 10.5425 2.5237 8.32355C2.5237 6.10456 2.53388 5.83817 2.57516 4.96428C2.61282 4.15207 2.7569 3.71347 2.87698 3.42107C3.01771 3.0604 3.24072 2.73234 3.53584 2.46583C3.8205 2.18968 4.1636 1.9785 4.5445 1.84538C4.85328 1.73167 5.31995 1.59524 6.17421 1.55945C7.10058 1.52049 7.37854 1.51072 9.7218 1.51072C12.0687 1.51072 12.3465 1.52049 13.2695 1.55945C14.1273 1.59524 14.5905 1.73167 14.8992 1.84538C15.28 1.9785 15.6266 2.18968 15.9079 2.46583C16.1995 2.73551 16.4225 3.0604 16.5633 3.42107C16.6834 3.71347 16.8274 4.15524 16.8652 4.96428C16.9064 5.84147 16.9167 6.10456 16.9167 8.32355C16.9167 10.5425 16.9064 10.8025 16.8652 11.6796Z" fill="white"/>
<path d="M9.71164 4.03369C7.2156 4.03369 5.19043 5.95158 5.19043 8.31567C5.19043 10.6798 7.2156 12.5977 9.71164 12.5977C12.2078 12.5977 14.2328 10.6798 14.2328 8.31567C14.2328 5.95158 12.2078 4.03369 9.71164 4.03369ZM9.71164 11.0933C8.09234 11.0933 6.77884 9.84942 6.77884 8.31567C6.77884 6.78192 8.09234 5.53806 9.71164 5.53806C11.3311 5.53806 12.6444 6.78192 12.6444 8.31567C12.6444 9.84942 11.3311 11.0933 9.71164 11.0933V11.0933Z" fill="white"/>
<path d="M15.4581 3.8772C15.4581 4.43145 14.9879 4.88086 14.4079 4.88086C13.8281 4.88086 13.3579 4.43145 13.3579 3.8772C13.3579 3.32281 13.8281 2.87354 14.4079 2.87354C14.9879 2.87354 15.4581 3.32281 15.4581 3.8772V3.8772Z" fill="white"/>
</svg>
