<svg width="80" height="76" viewBox="0 0 80 76" fill="none" xmlns="http://www.w3.org/2000/svg">
<path d="M46.6412 37.1396C48.7431 35.0815 50.2589 32.5517 51.0465 29.7872C51.1038 29.5365 51.0545 29.2745 50.9092 29.058C50.7638 28.8416 50.5342 28.6881 50.2702 28.6309C50.2005 28.6176 50.1296 28.6109 50.0585 28.6108C49.8236 28.6098 49.5953 28.684 49.4105 28.8214C49.2258 28.9587 49.0955 29.1512 49.0408 29.3675C48.3231 31.7762 46.9894 33.9801 45.1578 35.7841C44.97 35.9708 44.868 36.2202 44.8738 36.478C44.8796 36.7357 44.9928 36.9808 45.1888 37.1597C45.3875 37.3333 45.649 37.4281 45.9193 37.4243C46.1895 37.4206 46.448 37.3187 46.6412 37.1396V37.1396Z" fill="#BAD036"/>
<path fill-rule="evenodd" clip-rule="evenodd" d="M75.3028 58.3722H76.7453C77.3665 58.3729 77.962 58.6069 78.4013 59.0229C78.8405 59.4389 79.0876 60.003 79.0884 60.5913V73.5476C79.088 74.1361 78.841 74.7003 78.4017 75.1164C77.9624 75.5325 77.3666 75.7664 76.7453 75.7667H2.34307C1.72176 75.7664 1.12601 75.5325 0.686681 75.1164C0.247352 74.7003 0.000373942 74.1361 0 73.5476V60.5913C0.000747073 60.003 0.247845 59.4389 0.687094 59.0229C1.12634 58.6069 1.72188 58.3729 2.34307 58.3722H9.98485C9.00744 57.4745 8.23301 56.398 7.70865 55.208C7.18428 54.0181 6.92094 52.7395 6.93463 51.4502C6.8997 49.5995 7.4478 47.781 8.50897 46.2267C9.57014 44.6723 11.0962 43.4527 12.8925 42.7235C13.0183 42.6724 13.1537 42.646 13.2906 42.646H28.6334C27.9598 42.1177 27.3398 41.531 26.7815 40.8934C25.2536 39.1646 23.9723 37.2531 22.9705 35.208C22.7913 34.851 22.6177 34.4914 22.4539 34.1024C20.4447 30.0341 19.9839 25.4327 21.1497 21.0792C21.8879 18.4369 23.6457 16.1529 26.0758 14.6786C26.6222 14.2972 27.211 13.9736 27.8317 13.7134C29.2653 13.0954 30.8214 12.7737 32.3964 12.7696H32.6321C34.3115 12.8735 35.9603 13.2455 37.5088 13.8698L38.5195 14.2174V13.5824C38.538 12.708 38.6731 11.8393 38.9217 10.997L39.084 10.4208L38.4545 10.4342L38.4448 10.4344C38.3811 10.4357 38.2999 10.4373 38.2569 10.4462C38.2118 10.4556 38.1623 10.4556 38.1158 10.4556C35.8395 10.5222 33.6113 9.82635 31.8234 8.49049C29.6896 6.6854 28.3391 4.1945 28.0335 1.50031C28.015 1.28524 28.0725 1.07044 28.1969 0.889673C28.3213 0.708909 28.5057 0.572438 28.7209 0.501718C31.4029 -0.306627 34.3073 -0.134947 36.8624 0.982969C38.8092 1.98328 40.3385 3.58157 41.1985 5.51475L41.5062 6.14974L41.9861 5.61501C42.8653 4.65005 43.8547 3.78027 44.9361 3.0216C45.0441 2.9449 45.167 2.88918 45.2978 2.85766C45.4286 2.82615 45.5647 2.81946 45.6983 2.83797C45.8318 2.85648 45.9602 2.89984 46.076 2.96554C46.1918 3.03124 46.2927 3.11799 46.373 3.22079C46.5351 3.42785 46.604 3.6873 46.5645 3.94236C46.5251 4.19741 46.3806 4.42728 46.1626 4.58166C40.8343 8.34478 40.5802 12.7402 40.5802 13.5824V14.2187L41.6021 13.8685C43.1455 13.2473 44.7885 12.8772 46.4619 12.7736C48.1149 12.746 49.7539 13.0656 51.2609 13.7094C51.8916 13.9755 52.4898 14.3059 53.0451 14.6946C55.4896 16.197 57.2488 18.5144 57.974 21.1875L57.9867 21.2316C59.0916 25.5808 58.5992 30.1567 56.5907 34.2053C56.4707 34.4941 56.2999 34.8497 56.1249 35.2013C55.1232 37.2472 53.8419 39.1596 52.3139 40.8894C51.7535 41.526 51.1327 42.1127 50.4592 42.6419H75.0007C75.2335 42.6417 75.4593 42.7176 75.6398 42.8569C75.8203 42.9961 75.9446 43.19 75.9916 43.406C76.0385 43.622 76.0053 43.8467 75.8976 44.0421C75.7898 44.2376 75.6141 44.3918 75.4002 44.4787C74.2158 44.9564 73.176 45.7063 72.3747 46.6605C71.5735 47.6147 71.0362 48.7431 70.8114 49.9436C70.5484 51.2816 70.6455 52.6609 71.0937 53.954C71.4261 54.9302 71.973 55.8287 72.6985 56.5902C73.4239 57.3517 74.3115 57.959 75.3028 58.3722ZM33.1389 6.99861C34.5605 8.03767 36.3213 8.57259 38.1158 8.51054C38.5562 8.51006 38.9963 8.4873 39.4341 8.44236L39.6077 8.42498L39.7277 8.30467C39.7434 8.28645 39.7597 8.26822 39.776 8.2499C39.7991 8.22388 39.8225 8.19766 39.8448 8.17099L40.0001 7.98517L39.9253 7.75925C39.6505 6.71032 39.1567 5.72411 38.4731 4.85878C37.7895 3.99345 36.9299 3.26651 35.9449 2.72082C34.3237 1.97666 32.494 1.74248 30.7224 2.05242L30.2072 2.13263L30.3399 2.6112C30.7646 4.31524 31.7437 5.84991 33.1389 6.99861ZM24.3425 33.3297C24.5161 33.7375 24.6714 34.057 24.8295 34.3738C25.7537 36.2624 26.9358 38.0278 28.3455 39.6248C29.1559 40.6436 30.2152 41.461 31.4324 42.007C31.9449 42.3104 32.5251 42.4965 33.1268 42.5506C33.7286 42.6046 34.3353 42.5252 34.899 42.3184C35.1629 42.2182 35.4198 42.1099 35.681 41.9989C36.2995 41.7169 36.9445 41.4905 37.6076 41.3225C38.2237 41.1845 38.8546 41.1145 39.4877 41.114H39.5752C40.2192 41.1099 40.8613 41.1791 41.4878 41.3198C42.154 41.4892 42.8019 41.7174 43.423 42.0016L43.5091 42.0377C43.7363 42.134 43.9636 42.2289 44.1979 42.3184C44.6151 42.487 45.0627 42.5778 45.5162 42.5858C46.231 42.5408 46.9287 42.3588 47.5671 42.0511C48.8223 41.5039 49.9159 40.6725 50.7514 39.6301C52.1629 38.0307 53.3464 36.2625 54.2716 34.3711C54.4297 34.057 54.5779 33.7388 54.7191 33.4153C56.5232 29.7624 56.9756 25.6405 56.0035 21.7142C55.3855 19.5052 53.9343 17.5872 51.9243 16.3229C51.8947 16.3055 51.8608 16.2854 51.8312 16.264C51.393 15.9542 50.9196 15.6919 50.4197 15.482C49.1965 14.948 47.8606 14.6859 46.5141 14.716C45.0598 14.8148 43.6337 15.1466 42.2966 15.6972L41.4808 15.978C41.1152 16.0956 40.2683 16.363 40.2683 16.363C40.1654 16.395 40.0577 16.4113 39.9493 16.4111H39.1574C39.0486 16.4114 38.9404 16.3951 38.837 16.363C38.837 16.363 37.9972 16.1009 37.6274 15.9766L36.7932 15.6919C35.4634 15.1451 34.0456 14.8151 32.5997 14.716C31.2502 14.6797 29.9103 14.9424 28.687 15.4833C28.1872 15.6912 27.7138 15.9517 27.2756 16.26C27.2403 16.2856 27.2035 16.3092 27.1655 16.3309C25.1842 17.5576 23.7481 19.4311 23.13 21.5952C22.1372 25.5251 22.5641 29.6567 24.3425 33.3297ZM32.9766 58.3321H71.6682C70.7004 57.4519 69.9387 56.3888 69.4324 55.212H46.4605C46.1923 55.212 45.935 55.111 45.7454 54.9314C45.5557 54.7518 45.4491 54.5082 45.4491 54.2541C45.4491 54.0001 45.5557 53.7565 45.7454 53.5769C45.935 53.3972 46.1923 53.2963 46.4605 53.2963H68.8424C68.6745 52.4497 68.6223 51.5862 68.6871 50.727H32.9766V58.3321ZM10.1466 47.3675C9.33924 48.5901 8.92413 50.0084 8.95164 51.4502C8.92523 52.891 9.34086 54.3082 10.1481 55.5298C10.9554 56.7513 12.1196 57.7248 13.4995 58.3321H22.3749V50.7283H17.3189C17.0507 50.7283 16.7935 50.6274 16.6038 50.4478C16.4142 50.2681 16.3076 50.0245 16.3076 49.7705C16.3076 49.5164 16.4142 49.2728 16.6038 49.0932C16.7935 48.9136 17.0507 48.8126 17.3189 48.8126H69.0217C69.4815 47.1956 70.3956 45.727 71.6668 44.5629H13.4995C12.1187 45.1706 10.9539 46.1449 10.1466 47.3675ZM30.9539 62.408V50.727H24.3975V62.408L27.1415 60.7945C27.3017 60.7003 27.4865 60.6505 27.675 60.6505C27.8635 60.6505 28.0483 60.7003 28.2085 60.7945L30.9539 62.408ZM2.34307 73.8538H58.9832V60.2878H32.9751V64.1298C32.9751 64.3005 32.9269 64.468 32.8356 64.6151C32.7442 64.7622 32.6131 64.8836 32.4557 64.9667C32.2977 65.0481 32.1198 65.0887 31.9399 65.0845C31.7601 65.0803 31.5846 65.0313 31.431 64.9426L27.675 62.7342L23.919 64.9426C23.7658 65.0323 23.5901 65.0816 23.41 65.0855C23.23 65.0894 23.052 65.0477 22.8947 64.9648C22.7373 64.8818 22.6061 64.7605 22.5148 64.6135C22.4234 64.4665 22.3751 64.2991 22.3749 64.1285V60.2878H2.34307C2.25809 60.2878 2.17659 60.3198 2.1165 60.3767C2.05642 60.4336 2.02266 60.5108 2.02266 60.5913V73.5503C2.02266 73.6308 2.05642 73.708 2.1165 73.7649C2.17659 73.8218 2.25809 73.8538 2.34307 73.8538ZM60.9988 73.8538H65.5282L65.5155 60.2878H60.9988V73.8538ZM76.9719 73.7649C77.032 73.708 77.0657 73.6308 77.0657 73.5503V60.5913C77.0657 60.5108 77.032 60.4336 76.9719 60.3767C76.9118 60.3198 76.8303 60.2878 76.7453 60.2878H67.5509V73.8538H76.7453C76.8303 73.8538 76.9118 73.8218 76.9719 73.7649Z" fill="#BAD036"/>
<path fill-rule="evenodd" clip-rule="evenodd" d="M12.7927 42.9995C11.2649 43.7429 9.96546 44.8543 9.0285 46.2267C7.96733 47.781 7.41923 49.5996 7.45416 51.4502C7.44047 52.7396 7.70381 54.0181 8.22818 55.2081C8.75255 56.3981 9.52698 57.4746 10.5044 58.3722H2.8626C2.24141 58.3729 1.64587 58.6069 1.20662 59.023C0.767376 59.439 0.520278 60.003 0.519531 60.5913V73.5477C0.519905 74.1361 0.766883 74.7003 1.20621 75.1164C1.64554 75.5325 2.24129 75.7664 2.8626 75.7668H77.2648C77.8862 75.7664 78.4819 75.5325 78.9212 75.1164C79.3606 74.7003 79.6075 74.1361 79.6079 73.5477V60.5913C79.6072 60.003 79.3601 59.439 78.9208 59.023C78.4816 58.6069 77.886 58.3729 77.2648 58.3722H75.8223C74.8311 57.9591 73.9435 57.3518 73.218 56.5902C72.4925 55.8287 71.9456 54.9303 71.6133 53.9541C71.165 52.6609 71.0679 51.2817 71.331 49.9436C71.5557 48.7432 72.093 47.6148 72.8943 46.6606C73.6955 45.7064 74.7354 44.9565 75.9197 44.4788C76.1337 44.3918 76.3093 44.2376 76.4171 44.0421C76.5248 43.8467 76.5581 43.622 76.5111 43.406C76.4785 43.2563 76.4088 43.1172 76.309 42.9995H12.7927ZM33.4961 58.3321H72.1877C71.2199 57.4519 70.4582 56.3889 69.9519 55.212H46.98C46.7118 55.212 46.4545 55.1111 46.2649 54.9314C46.0752 54.7518 45.9687 54.5082 45.9687 54.2542C45.9687 54.0001 46.0752 53.7565 46.2649 53.5769C46.4545 53.3973 46.7118 53.2963 46.98 53.2963H69.3619C69.194 52.4498 69.1418 51.5862 69.2067 50.727H33.4961V58.3321ZM10.6661 47.3675C9.85877 48.5901 9.44366 50.0084 9.47118 51.4502C9.44476 52.8911 9.86039 54.3083 10.6676 55.5298C11.4749 56.7514 12.6391 57.7248 14.019 58.3321H22.8944V50.7283H17.8385C17.5702 50.7283 17.313 50.6274 17.1233 50.4478C16.9337 50.2682 16.8271 50.0245 16.8271 49.7705C16.8271 49.5165 16.9337 49.2729 17.1233 49.0932C17.313 48.9136 17.5702 48.8127 17.8385 48.8127H69.5412C70.001 47.1957 70.9152 45.727 72.1863 44.563H14.019C12.6382 45.1706 11.4734 46.1449 10.6661 47.3675ZM31.4734 62.408V50.727H24.9171V62.408L27.661 60.7945C27.8212 60.7004 28.006 60.6505 28.1945 60.6505C28.3831 60.6505 28.5679 60.7004 28.7281 60.7945L31.4734 62.408ZM2.8626 73.8538H59.5027V60.2879H33.4947V64.1298C33.4946 64.3005 33.4464 64.468 33.3551 64.6152C33.2638 64.7623 33.1326 64.8836 32.9752 64.9667C32.8172 65.0481 32.6393 65.0887 32.4595 65.0845C32.2796 65.0803 32.1041 65.0314 31.9505 64.9426L28.1945 62.7342L24.4386 64.9426C24.2854 65.0323 24.1096 65.0817 23.9296 65.0856C23.7495 65.0895 23.5716 65.0478 23.4142 64.9648C23.2568 64.8818 23.1257 64.7606 23.0343 64.6136C22.9429 64.4665 22.8946 64.2991 22.8944 64.1285V60.2879H2.8626C2.77762 60.2879 2.69612 60.3198 2.63604 60.3767C2.57595 60.4336 2.54219 60.5108 2.54219 60.5913V73.5503C2.54219 73.6308 2.57595 73.708 2.63604 73.7649C2.69612 73.8218 2.77762 73.8538 2.8626 73.8538ZM61.5183 73.8538H66.0478L66.0351 60.2879H61.5183V73.8538ZM77.4914 73.7649C77.5515 73.708 77.5853 73.6308 77.5853 73.5503V60.5913C77.5853 60.5108 77.5515 60.4336 77.4914 60.3767C77.4313 60.3198 77.3498 60.2879 77.2648 60.2879H68.0704V73.8538H77.2648C77.3498 73.8538 77.4313 73.8218 77.4914 73.7649Z" fill="#708CB1"/>
</svg>
