<svg width="108" height="108" viewBox="0 0 108 108" fill="none" xmlns="http://www.w3.org/2000/svg">
<g filter="url(#filter0_d_1_256)">
<path d="M100.889 53L104 46.9739L99.5369 41.8547L101.102 35.2649L95.5277 31.3636L95.4504 24.5935L89.0978 22.1306L87.3966 15.5741L80.6363 14.6836L77.4095 8.71875L70.631 9.46099L66.0543 4.44181L59.6553 6.78319L54 3L48.3447 6.78319L41.9454 4.44181L37.3686 9.46099L30.5903 8.71897L27.3634 14.6838L20.603 15.5744L18.902 22.131L12.5494 24.594L12.4721 31.364L6.89843 35.2651L8.46312 41.855L4 46.9739L7.11116 53L4.00022 59.0261L8.46312 64.1453L6.89843 70.7351L12.4723 74.6364L12.5496 81.4065L18.9022 83.8694L20.6034 90.4259L27.3637 91.3164L30.5905 97.2812L37.369 96.539L41.9457 101.558L48.3447 99.2168L54 103L59.6553 99.2168L66.0546 101.558L70.6314 96.539L77.4097 97.281L80.6365 91.3162L87.397 90.4257L89.098 83.869L95.4506 81.406L95.5279 74.636L101.102 70.7349L99.5369 64.145L104 59.0261L100.889 53Z" fill="#94AB08"/>
<circle cx="54.4312" cy="52.569" r="44.3966" fill="#CFDD79"/>
<circle cx="54.4312" cy="52.569" r="42.6724" fill="#BAD036"/>
</g>
<path fill-rule="evenodd" clip-rule="evenodd" d="M29.9608 39.4433V41.486H22.9653V30.5862H25.3082V39.4433H29.9608ZM33.9443 30.5862V41.486H31.6014V30.5862H33.9443ZM48.0576 41.486V30.5862H44.7578L42.085 37.1719L39.4122 30.5862H36.1289V41.486H38.4718V33.8545L41.5736 41.486H42.5965L45.6983 33.8545V41.486H48.0576ZM52.586 30.5862V41.486H50.2432V30.5862H52.586ZM59.6708 41.486V32.6289H62.8716V30.5862H54.0942V32.6289H57.3115V41.486H59.6708ZM72.161 39.4433V41.486H64.3735V30.5862H72.161V32.6289H66.7163V34.9331H72.0455V36.9758H66.7163V39.4433H72.161ZM78.3316 41.486C81.7799 41.486 84.1722 39.3289 84.1722 36.0443C84.1722 32.7596 81.7799 30.5862 78.3316 30.5862H73.9925V41.486H78.3316ZM78.3316 39.4433H76.3353V32.6289H78.3316C80.592 32.6289 81.7799 34.116 81.7799 36.0443C81.7799 37.8909 80.5095 39.4433 78.3316 39.4433ZM39.4466 69.5741C39.4466 72.7493 37.0316 75.024 33.7131 75.024C30.411 75.024 27.9961 72.7493 27.9961 69.5741C27.9961 66.3989 30.411 64.1242 33.7131 64.1242C37.0316 64.1242 39.4466 66.3989 39.4466 69.5741ZM30.3946 69.5741C30.3946 71.5329 31.6924 73.0336 33.7131 73.0336C35.7338 73.0336 37.048 71.5329 37.048 69.5741C37.048 67.5995 35.7338 66.1146 33.7131 66.1146C31.6924 66.1146 30.3946 67.5995 30.3946 69.5741ZM43.4164 70.4745V74.8345H41.0836V64.298H48.8377V66.2726H43.4164V68.4999H48.7227V70.4745H43.4164ZM52.8017 74.8345V70.4745H58.108V68.4999H52.8017V66.2726H58.223V64.298H50.4689V74.8345H52.8017ZM67.6082 72.8599V74.8345H59.8541V64.298H67.6082V66.2726H62.1869V68.4999H67.4932V70.4745H62.1869V72.8599H67.6082ZM78.3031 74.8345L75.8389 70.8221C77.0217 70.5535 78.2374 69.5583 78.2374 67.6943C78.2374 65.7355 76.841 64.298 74.5575 64.298H69.4319V74.8345H71.7647V71.0906H73.4732L75.6253 74.8345H78.3031ZM74.2125 69.116H71.7647V66.2726H74.2125C75.1489 66.2726 75.8553 66.8097 75.8553 67.6943C75.8553 68.5789 75.1489 69.116 74.2125 69.116ZM40.3081 49.3979V58.2551H37.937V49.3979H34.7036V47.3552H43.5248V49.3979H40.3081ZM47.3888 47.3552V58.2551H45.0342V47.3552H47.3888ZM61.5726 58.2551V47.3552H58.2564L55.5702 53.9409L52.884 47.3552H49.5844V58.2551H51.9389V50.6235L55.0562 58.2551H56.0842L59.2015 50.6235V58.2551H61.5726ZM71.5954 56.2124V58.2551H63.7691V47.3552H71.5954V49.3979H66.1236V51.7021H71.4794V53.7448H66.1236V56.2124H71.5954Z" fill="white"/>
<defs>
<filter id="filter0_d_1_256" x="0" y="0" width="108" height="108" filterUnits="userSpaceOnUse" color-interpolation-filters="sRGB">
<feFlood flood-opacity="0" result="BackgroundImageFix"/>
<feColorMatrix in="SourceAlpha" type="matrix" values="0 0 0 0 0 0 0 0 0 0 0 0 0 0 0 0 0 0 127 0" result="hardAlpha"/>
<feOffset dy="1"/>
<feGaussianBlur stdDeviation="2"/>
<feColorMatrix type="matrix" values="0 0 0 0 0 0 0 0 0 0 0 0 0 0 0 0 0 0 0.25 0"/>
<feBlend mode="normal" in2="BackgroundImageFix" result="effect1_dropShadow_1_256"/>
<feBlend mode="normal" in="SourceGraphic" in2="effect1_dropShadow_1_256" result="shape"/>
</filter>
</defs>
</svg>
