<svg width="18" height="18" viewBox="0 0 18 18" fill="none" xmlns="http://www.w3.org/2000/svg">
<path d="M17.995 17.9999V17.9992H17.9995V11.3977C17.9995 8.16817 17.3042 5.68042 13.5287 5.68042C11.7137 5.68042 10.4957 6.67642 9.99846 7.62067H9.94596V5.98192H6.36621V17.9992H10.0937V12.0487C10.0937 10.4819 10.3907 8.96692 12.331 8.96692C14.2427 8.96692 14.2712 10.7549 14.2712 12.1492V17.9999H17.995Z" fill="white"/>
<path d="M0.296875 5.98279H4.02888V18H0.296875V5.98279Z" fill="white"/>
<path d="M2.1615 0C0.96825 0 0 0.96825 0 2.1615C0 3.35475 0.96825 4.34325 2.1615 4.34325C3.35475 4.34325 4.323 3.35475 4.323 2.1615C4.32225 0.96825 3.354 0 2.1615 0V0Z" fill="white"/>
</svg>
