<svg width="101" height="37" viewBox="0 0 101 37" fill="none" xmlns="http://www.w3.org/2000/svg">
<path d="M5.796 7.0317H2.652L2.148 8.5197H0L3.048 0.0957031H5.424L8.472 8.5197H6.3L5.796 7.0317ZM5.268 5.4477L4.224 2.3637L3.192 5.4477H5.268Z" fill="white"/>
<path d="M21.6997 0.0957031V8.5197H19.6477V3.4677L17.7637 8.5197H16.1077L14.2117 3.4557V8.5197H12.1597V0.0957031H14.5837L16.9477 5.9277L19.2877 0.0957031H21.6997Z" fill="white"/>
<path d="M31.1793 7.0317H28.0353L27.5313 8.5197H25.3833L28.4313 0.0957031H30.8073L33.8553 8.5197H31.6833L31.1793 7.0317ZM30.6513 5.4477L29.6073 2.3637L28.5753 5.4477H30.6513Z" fill="white"/>
<path d="M39.7269 6.8397H43.3509V8.5197H37.3989V6.9597L40.9989 1.7757H37.3989V0.0957031H43.3509V1.6557L39.7269 6.8397Z" fill="white"/>
<path d="M49.5034 0.0957031V8.5197H47.4514V0.0957031H49.5034Z" fill="white"/>
<path d="M61.2865 8.5197H59.2345L55.8025 3.3237V8.5197H53.7505V0.0957031H55.8025L59.2345 5.3157V0.0957031H61.2865V8.5197Z" fill="white"/>
<path d="M71.1258 2.76C70.9738 2.48 70.7538 2.268 70.4658 2.124C70.1858 1.972 69.8538 1.896 69.4698 1.896C68.8058 1.896 68.2738 2.116 67.8738 2.556C67.4738 2.988 67.2738 3.568 67.2738 4.296C67.2738 5.072 67.4818 5.68 67.8978 6.12C68.3218 6.552 68.9018 6.768 69.6378 6.768C70.1418 6.768 70.5658 6.64 70.9098 6.384C71.2618 6.128 71.5178 5.76 71.6778 5.28H69.0738V3.768H73.5378V5.676C73.3858 6.188 73.1258 6.664 72.7578 7.104C72.3978 7.544 71.9378 7.9 71.3778 8.172C70.8178 8.444 70.1858 8.58 69.4818 8.58C68.6498 8.58 67.9058 8.4 67.2498 8.04C66.6018 7.672 66.0938 7.164 65.7258 6.516C65.3658 5.868 65.1858 5.128 65.1858 4.296C65.1858 3.464 65.3658 2.724 65.7258 2.076C66.0938 1.42 66.6018 0.912 67.2498 0.552C67.8978 0.184 68.6378 0 69.4698 0C70.4778 0 71.3258 0.244 72.0138 0.732C72.7098 1.22 73.1698 1.896 73.3938 2.76H71.1258Z" fill="white"/>
<path d="M3.249 23.0116H7.505V25.5196H0V12.1816H3.249V23.0116Z" fill="white"/>
<path d="M13.0637 12.1816V25.5196H9.8147V12.1816H13.0637Z" fill="white"/>
<path d="M21.0041 25.6532C20.0288 25.6532 19.1548 25.4949 18.3821 25.1782C17.6094 24.8616 16.9888 24.3929 16.5201 23.7722C16.0641 23.1516 15.8234 22.4042 15.7981 21.5302H19.2561C19.3068 22.0242 19.4778 22.4042 19.7691 22.6702C20.0604 22.9236 20.4404 23.0502 20.9091 23.0502C21.3904 23.0502 21.7704 22.9426 22.0491 22.7272C22.3278 22.4992 22.4671 22.1889 22.4671 21.7962C22.4671 21.4669 22.3531 21.1946 22.1251 20.9792C21.9098 20.7639 21.6374 20.5866 21.3081 20.4472C20.9914 20.3079 20.5354 20.1496 19.9401 19.9722C19.0788 19.7062 18.3758 19.4402 17.8311 19.1742C17.2864 18.9082 16.8178 18.5156 16.4251 17.9962C16.0324 17.4769 15.8361 16.7992 15.8361 15.9632C15.8361 14.7219 16.2858 13.7529 17.1851 13.0562C18.0844 12.3469 19.2561 11.9922 20.7001 11.9922C22.1694 11.9922 23.3538 12.3469 24.2531 13.0562C25.1524 13.7529 25.6338 14.7282 25.6971 15.9822H22.1821C22.1568 15.5516 21.9984 15.2159 21.7071 14.9752C21.4158 14.7219 21.0421 14.5952 20.5861 14.5952C20.1934 14.5952 19.8768 14.7029 19.6361 14.9182C19.3954 15.1209 19.2751 15.4186 19.2751 15.8112C19.2751 16.2419 19.4778 16.5776 19.8831 16.8182C20.2884 17.0589 20.9218 17.3186 21.7831 17.5972C22.6444 17.8886 23.3411 18.1672 23.8731 18.4332C24.4178 18.6992 24.8864 19.0856 25.2791 19.5922C25.6718 20.0989 25.8681 20.7512 25.8681 21.5492C25.8681 22.3092 25.6718 22.9996 25.2791 23.6202C24.8991 24.2409 24.3418 24.7349 23.6071 25.1022C22.8724 25.4696 22.0048 25.6532 21.0041 25.6532Z" fill="white"/>
<path d="M38.2228 12.1816V14.7846H34.6888V25.5196H31.4398V14.7846H27.9058V12.1816H38.2228Z" fill="white"/>
<path d="M43.8623 14.7846V17.4826H48.2133V19.9906H43.8623V22.9166H48.7833V25.5196H40.6133V12.1816H48.7833V14.7846H43.8623Z" fill="white"/>
<path d="M63.5846 25.5196H60.3356L54.9016 17.2926V25.5196H51.6526V12.1816H54.9016L60.3356 20.4466V12.1816H63.5846V25.5196Z" fill="white"/>
<path d="M69.9487 12.1816V25.5196H66.6997V12.1816H69.9487Z" fill="white"/>
<path d="M84.9952 25.5196H81.7462L76.3122 17.2926V25.5196H73.0632V12.1816H76.3122L81.7462 20.4466V12.1816H84.9952V25.5196Z" fill="white"/>
<path d="M96.9643 16.3998C96.7236 15.9565 96.3753 15.6208 95.9193 15.3928C95.4759 15.1522 94.9503 15.0318 94.3423 15.0318C93.2909 15.0318 92.4486 15.3802 91.8153 16.0768C91.1819 16.7608 90.8653 17.6792 90.8653 18.8318C90.8653 20.0605 91.1946 21.0232 91.8533 21.7198C92.5246 22.4038 93.4429 22.7458 94.6083 22.7458C95.4063 22.7458 96.0776 22.5432 96.6223 22.1378C97.1796 21.7325 97.5849 21.1498 97.8383 20.3898H93.7153V17.9958H100.783V21.0168C100.543 21.8275 100.131 22.5812 99.5483 23.2778C98.9783 23.9745 98.2499 24.5382 97.3633 24.9688C96.4766 25.3995 95.4759 25.6148 94.3613 25.6148C93.0439 25.6148 91.8659 25.3298 90.8273 24.7598C89.8013 24.1772 88.9969 23.3728 88.4143 22.3468C87.8443 21.3208 87.5593 20.1492 87.5593 18.8318C87.5593 17.5145 87.8443 16.3428 88.4143 15.3168C88.9969 14.2782 89.8013 13.4738 90.8273 12.9038C91.8533 12.3212 93.0249 12.0298 94.3423 12.0298C95.9383 12.0298 97.2809 12.4162 98.3703 13.1888C99.4723 13.9615 100.201 15.0318 100.555 16.3998H96.9643Z" fill="white"/>
<path d="M6.04005 28.6318V29.8961H3.84581V36.4416H2.19424V29.8961H0V28.6318H6.04005Z" fill="white"/>
<path d="M10.0764 29.8961V31.8542H12.8486V33.0961H10.0764V35.1661H13.2026V36.4416H8.4248V28.6206H13.2026V29.8961H10.0764Z" fill="white"/>
<path d="M15.4819 32.5257C15.4819 31.7573 15.6628 31.0711 16.0246 30.4669C16.3942 29.8552 16.8936 29.3816 17.5228 29.0459C18.1599 28.7028 18.8716 28.5312 19.6581 28.5312C20.5782 28.5312 21.3844 28.755 22.0764 29.2025C22.7685 29.6501 23.2522 30.2692 23.5275 31.0599H21.6282C21.4394 30.6869 21.172 30.4072 20.826 30.2207C20.4878 30.0342 20.0946 29.941 19.6463 29.941C19.1665 29.941 18.7379 30.0492 18.3604 30.2655C17.9908 30.4743 17.6998 30.7728 17.4874 31.1607C17.2829 31.5486 17.1807 32.0036 17.1807 32.5257C17.1807 33.0403 17.2829 33.4953 17.4874 33.8906C17.6998 34.2785 17.9908 34.5807 18.3604 34.797C18.7379 35.0059 19.1665 35.1102 19.6463 35.1102C20.0946 35.1102 20.4878 35.0171 20.826 34.8306C21.172 34.6367 21.4394 34.3532 21.6282 33.9803H23.5275C23.2522 34.7784 22.7685 35.4012 22.0764 35.8488C21.3922 36.2889 20.5861 36.5089 19.6581 36.5089C18.8716 36.5089 18.1599 36.341 17.5228 36.0053C16.8936 35.6622 16.3942 35.1886 16.0246 34.5844C15.6628 33.9802 15.4819 33.294 15.4819 32.5257Z" fill="white"/>
<path d="M32.9484 28.6318V36.4416H31.2968V33.1185H27.7695V36.4416H26.1179V28.6318H27.7695V31.843H31.2968V28.6318H32.9484Z" fill="white"/>
<path d="M42.7964 36.4416H41.1449L37.4052 31.0822V36.4416H35.7537V28.6206H37.4052L41.1449 33.9912V28.6206H42.7964V36.4416Z" fill="white"/>
<path d="M49.4306 36.52C48.6599 36.52 47.952 36.3485 47.3071 36.0053C46.6622 35.6622 46.151 35.1886 45.7735 34.5844C45.396 33.9727 45.2073 33.2827 45.2073 32.5144C45.2073 31.7536 45.396 31.0711 45.7735 30.4669C46.151 29.8552 46.6622 29.3778 47.3071 29.0347C47.952 28.6916 48.6599 28.52 49.4306 28.52C50.2092 28.52 50.917 28.6916 51.554 29.0347C52.1989 29.3778 52.7062 29.8552 53.0759 30.4669C53.4534 31.0711 53.6421 31.7536 53.6421 32.5144C53.6421 33.2827 53.4534 33.9727 53.0759 34.5844C52.7062 35.1886 52.1989 35.6622 51.554 36.0053C50.9091 36.3485 50.2013 36.52 49.4306 36.52ZM49.4306 35.1214C49.9261 35.1214 50.3626 35.017 50.7401 34.8081C51.1176 34.5918 51.4125 34.286 51.6248 33.8906C51.8372 33.4953 51.9433 33.0366 51.9433 32.5144C51.9433 31.9923 51.8372 31.5373 51.6248 31.1494C51.4125 30.7541 51.1176 30.452 50.7401 30.2431C50.3626 30.0342 49.9261 29.9298 49.4306 29.9298C48.9351 29.9298 48.4947 30.0342 48.1093 30.2431C47.7318 30.452 47.4369 30.7541 47.2246 31.1494C47.0122 31.5373 46.906 31.9923 46.906 32.5144C46.906 33.0366 47.0122 33.4953 47.2246 33.8906C47.4369 34.286 47.7318 34.5918 48.1093 34.8081C48.4947 35.017 48.9351 35.1214 49.4306 35.1214Z" fill="white"/>
<path d="M57.7019 35.1996H60.4152V36.4416H56.0503V28.6318H57.7019V35.1996Z" fill="white"/>
<path d="M66.467 36.52C65.6962 36.52 64.9884 36.3485 64.3435 36.0053C63.6986 35.6622 63.1874 35.1886 62.8099 34.5844C62.4324 33.9727 62.2437 33.2827 62.2437 32.5144C62.2437 31.7536 62.4324 31.0711 62.8099 30.4669C63.1874 29.8552 63.6986 29.3778 64.3435 29.0347C64.9884 28.6916 65.6962 28.52 66.467 28.52C67.2456 28.52 67.9534 28.6916 68.5904 29.0347C69.2353 29.3778 69.7426 29.8552 70.1122 30.4669C70.4897 31.0711 70.6785 31.7536 70.6785 32.5144C70.6785 33.2827 70.4897 33.9727 70.1122 34.5844C69.7426 35.1886 69.2353 35.6622 68.5904 36.0053C67.9455 36.3485 67.2377 36.52 66.467 36.52ZM66.467 35.1214C66.9624 35.1214 67.3989 35.017 67.7764 34.8081C68.1539 34.5918 68.4489 34.286 68.6612 33.8906C68.8735 33.4953 68.9797 33.0366 68.9797 32.5144C68.9797 31.9923 68.8735 31.5373 68.6612 31.1494C68.4489 30.7541 68.1539 30.452 67.7764 30.2431C67.3989 30.0342 66.9624 29.9298 66.467 29.9298C65.9715 29.9298 65.5311 30.0342 65.1457 30.2431C64.7682 30.452 64.4733 30.7541 64.2609 31.1494C64.0486 31.5373 63.9424 31.9923 63.9424 32.5144C63.9424 33.0366 64.0486 33.4953 64.2609 33.8906C64.4733 34.286 64.7682 34.5918 65.1457 34.8081C65.5311 35.017 65.9715 35.1214 66.467 35.1214Z" fill="white"/>
<path d="M78.8202 30.9816C78.6315 30.6534 78.372 30.4035 78.0416 30.2319C77.7113 30.0603 77.326 29.9746 76.8855 29.9746C76.3979 29.9746 75.9654 30.0791 75.5879 30.288C75.2104 30.4968 74.9154 30.7952 74.7031 31.1831C74.4907 31.5709 74.3846 32.0185 74.3846 32.5257C74.3846 33.0479 74.4907 33.5028 74.7031 33.8906C74.9233 34.2785 75.2261 34.577 75.6115 34.7859C75.9968 34.9947 76.4451 35.099 76.9563 35.099C77.5855 35.099 78.1006 34.9425 78.5017 34.6292C78.9028 34.3085 79.1663 33.8645 79.2921 33.2976H76.4608V32.1004H80.9201V33.4655C80.81 34.01 80.5741 34.5136 80.2123 34.9761C79.8505 35.4385 79.3826 35.8114 78.8084 36.0948C78.2422 36.3708 77.6051 36.5089 76.8973 36.5089C76.103 36.5089 75.3834 36.341 74.7385 36.0053C74.1014 35.6622 73.5981 35.1886 73.2285 34.5844C72.8667 33.9802 72.6858 33.294 72.6858 32.5257C72.6858 31.7573 72.8667 31.0711 73.2285 30.4669C73.5981 29.8552 74.1014 29.3816 74.7385 29.0459C75.3834 28.7028 76.0991 28.5312 76.8855 28.5312C77.8136 28.5312 78.6197 28.7476 79.3039 29.1803C79.9881 29.6054 80.46 30.2058 80.7195 30.9816H78.8202Z" fill="white"/>
<path d="M84.9734 28.6318V36.4416H83.3218V28.6318H84.9734Z" fill="white"/>
<path d="M89.4363 29.8961V31.8542H92.2086V33.0961H89.4363V35.1661H92.5625V36.4416H87.7847V28.6206H92.5625V29.8961H89.4363Z" fill="white"/>
<path d="M98.0863 36.52C97.5121 36.52 96.9931 36.4268 96.5291 36.2403C96.0729 36.0538 95.7111 35.7853 95.4437 35.4347C95.1763 35.0841 95.0387 34.6701 95.0308 34.1927H96.8004C96.824 34.5135 96.9419 34.7671 97.1543 34.9536C97.3745 35.1401 97.6734 35.2333 98.0509 35.2333C98.4362 35.2333 98.739 35.1475 98.9592 34.976C99.1794 34.7969 99.2895 34.5657 99.2895 34.2823C99.2895 34.051 99.2148 33.8608 99.0654 33.7116C98.916 33.5624 98.7272 33.4468 98.4991 33.3648C98.2789 33.2753 97.9722 33.1783 97.579 33.0739C97.0442 32.9247 96.6077 32.7792 96.2695 32.6375C95.9392 32.4883 95.6521 32.2683 95.4083 31.9774C95.1724 31.679 95.0544 31.2837 95.0544 30.7913C95.0544 30.3289 95.1763 29.9261 95.4201 29.583C95.6639 29.2398 96.0061 28.9788 96.4465 28.7997C96.8869 28.6133 97.3902 28.52 97.9565 28.52C98.8059 28.52 99.494 28.7177 100.021 29.113C100.556 29.5009 100.851 30.0454 100.906 30.7466H99.089C99.0733 30.4781 98.9514 30.258 98.7233 30.0865C98.5031 29.9074 98.2082 29.8179 97.8385 29.8179C97.5161 29.8179 97.2565 29.8962 97.0599 30.0529C96.8712 30.2095 96.7768 30.437 96.7768 30.7354C96.7768 30.9443 96.8476 31.1196 96.9891 31.2613C97.1386 31.3955 97.3194 31.5074 97.5318 31.5969C97.752 31.679 98.0587 31.776 98.452 31.8879C98.9868 32.037 99.4232 32.1862 99.7614 32.3354C100.1 32.4846 100.39 32.7084 100.634 33.0067C100.878 33.3051 101 33.6967 101 34.1816C101 34.5993 100.886 34.9872 100.658 35.3452C100.43 35.7032 100.096 35.9904 99.6552 36.2067C99.2148 36.4156 98.6918 36.52 98.0863 36.52Z" fill="white"/>
</svg>
