<?xml version="1.0" encoding="UTF-8"?>
<svg width="77px" height="28px" viewBox="0 0 77 28" version="1.1" xmlns="http://www.w3.org/2000/svg" xmlns:xlink="http://www.w3.org/1999/xlink">
    <title>Group 250</title>
    <g id="Sections" stroke="none" stroke-width="1" fill="none" fill-rule="evenodd">
        <g id="Artboard" transform="translate(-22.000000, -14.000000)" fill="#82A4D0">
            <g id="Group-250" transform="translate(22.440000, 14.250000)">
                <path d="M4.348,5.272 L1.988,5.272 L1.609,6.391 L0,6.391 L2.285,0.07 L4.066,0.07 L6.355,6.391 L4.727,6.391 L4.348,5.272 Z M3.949,4.086 L3.168,1.773 L2.395,4.086 L3.949,4.086 Z" id="Fill-221"></path>
                <polygon id="Fill-223" points="16.273 0.07 16.273 6.391 14.734 6.391 14.734 2.602 13.324 6.391 12.082 6.391 10.66 2.594 10.66 6.391 9.121 6.391 9.121 0.07 10.938 0.07 12.711 4.445 14.465 0.07"></polygon>
                <path d="M23.383,5.272 L21.027,5.272 L20.648,6.391 L19.039,6.391 L21.324,0.07 L23.105,0.07 L25.391,6.391 L23.762,6.391 L23.383,5.272 Z M22.988,4.086 L22.207,1.773 L21.43,4.086 L22.988,4.086 Z" id="Fill-224"></path>
                <polygon id="Fill-225" points="29.797 5.129 32.512 5.129 32.512 6.391 28.051 6.391 28.051 5.219 30.75 1.332 28.051 1.332 28.051 0.07 32.512 0.07 32.512 1.242"></polygon>
                <polygon id="Fill-226" points="35.59 6.39 37.129 6.39 37.129 0.07 35.59 0.07"></polygon>
                <polygon id="Fill-227" points="45.965 6.391 44.426 6.391 41.852 2.492 41.852 6.391 40.312 6.391 40.312 0.07 41.852 0.07 44.426 3.988 44.426 0.07 45.965 0.07"></polygon>
                <path d="M53.344,2.07 C53.23,1.859 53.066,1.699 52.848,1.594 C52.641,1.48 52.391,1.422 52.102,1.422 C51.605,1.422 51.207,1.586 50.906,1.918 C50.605,2.242 50.457,2.676 50.457,3.223 C50.457,3.805 50.613,4.262 50.922,4.59 C51.242,4.914 51.676,5.074 52.227,5.074 C52.605,5.074 52.926,4.979 53.184,4.789 C53.445,4.598 53.637,4.32 53.758,3.961 L51.805,3.961 L51.805,2.824 L55.152,2.824 L55.152,4.258 C55.039,4.641 54.844,4.996 54.57,5.328 C54.297,5.656 53.953,5.926 53.535,6.129 C53.113,6.332 52.641,6.434 52.113,6.434 C51.488,6.434 50.93,6.301 50.438,6.031 C49.953,5.754 49.57,5.371 49.293,4.887 C49.023,4.402 48.891,3.848 48.891,3.223 C48.891,2.598 49.023,2.043 49.293,1.559 C49.57,1.065 49.953,0.684 50.438,0.414 C50.922,0.137 51.477,0 52.102,0 C52.859,0 53.496,0.184 54.012,0.551 C54.531,0.914 54.879,1.422 55.047,2.07 L53.344,2.07 Z" id="Fill-228"></path>
                <polygon id="Fill-229" points="2.438 17.258 5.629 17.258 5.629 19.141 0 19.141 0 9.137 2.438 9.137"></polygon>
                <polygon id="Fill-230" points="7.359 19.141 9.797 19.141 9.797 9.137 7.359 9.137"></polygon>
                <path d="M15.754,19.238 C15.023,19.238 14.367,19.121 13.785,18.883 C13.207,18.645 12.742,18.293 12.391,17.828 C12.047,17.363 11.867,16.805 11.848,16.147 L14.441,16.147 C14.48,16.52 14.609,16.805 14.828,17.004 C15.047,17.19 15.332,17.289 15.684,17.289 C16.043,17.289 16.328,17.207 16.535,17.047 C16.746,16.875 16.852,16.641 16.852,16.348 C16.852,16.102 16.766,15.895 16.594,15.734 C16.434,15.574 16.227,15.441 15.98,15.336 C15.742,15.229 15.402,15.113 14.957,14.98 C14.309,14.777 13.781,14.578 13.375,14.379 C12.965,14.18 12.613,13.887 12.32,13.496 C12.023,13.105 11.879,12.598 11.879,11.973 C11.879,11.043 12.215,10.312 12.891,9.793 C13.562,9.262 14.441,8.992 15.523,8.992 C16.629,8.992 17.516,9.262 18.191,9.793 C18.863,10.312 19.227,11.047 19.273,11.984 L16.637,11.984 C16.617,11.664 16.5,11.41 16.281,11.23 C16.062,11.043 15.781,10.945 15.441,10.945 C15.145,10.945 14.906,11.027 14.727,11.188 C14.547,11.34 14.457,11.562 14.457,11.858 C14.457,12.18 14.609,12.434 14.914,12.613 C15.215,12.793 15.691,12.988 16.336,13.199 C16.984,13.418 17.508,13.625 17.906,13.824 C18.312,14.022 18.664,14.312 18.961,14.695 C19.254,15.074 19.402,15.562 19.402,16.16 C19.402,16.729 19.254,17.25 18.961,17.715 C18.676,18.18 18.258,18.551 17.707,18.828 C17.156,19.102 16.504,19.238 15.754,19.238 Z" id="Fill-231"></path>
                <polygon id="Fill-232" points="28.668 9.137 28.668 11.09 26.016 11.09 26.016 19.141 23.578 19.141 23.578 11.09 20.93 11.09 20.93 9.137"></polygon>
                <polygon id="Fill-233" points="32.898 11.09 32.898 13.113 36.16 13.113 36.16 14.992 32.898 14.992 32.898 17.188 36.586 17.188 36.586 19.141 30.461 19.141 30.461 9.137 36.586 9.137 36.586 11.09"></polygon>
                <polygon id="Fill-234" points="47.688 19.141 45.25 19.141 41.176 12.969 41.176 19.141 38.738 19.141 38.738 9.137 41.176 9.137 45.25 15.336 45.25 9.137 47.688 9.137"></polygon>
                <polygon id="Fill-235" points="50.023 19.141 52.461 19.141 52.461 9.137 50.023 9.137"></polygon>
                <polygon id="Fill-236" points="63.746 19.141 61.309 19.141 57.234 12.969 57.234 19.141 54.797 19.141 54.797 9.137 57.234 9.137 61.309 15.336 61.309 9.137 63.746 9.137"></polygon>
                <path d="M72.723,12.301 C72.543,11.969 72.281,11.715 71.938,11.543 C71.605,11.363 71.211,11.272 70.758,11.272 C69.969,11.272 69.336,11.535 68.859,12.059 C68.387,12.57 68.148,13.258 68.148,14.125 C68.148,15.047 68.395,15.766 68.891,16.289 C69.395,16.805 70.082,17.059 70.957,17.059 C71.555,17.059 72.059,16.906 72.465,16.602 C72.883,16.301 73.188,15.863 73.379,15.293 L70.285,15.293 L70.285,13.496 L75.586,13.496 L75.586,15.762 C75.406,16.371 75.098,16.938 74.66,17.457 C74.234,17.98 73.688,18.402 73.023,18.727 C72.355,19.051 71.605,19.211 70.77,19.211 C69.781,19.211 68.898,18.996 68.121,18.57 C67.352,18.133 66.746,17.531 66.309,16.762 C65.883,15.992 65.668,15.113 65.668,14.125 C65.668,13.137 65.883,12.258 66.309,11.488 C66.746,10.707 67.352,10.105 68.121,9.68 C68.891,9.242 69.77,9.022 70.758,9.022 C71.953,9.022 72.961,9.312 73.777,9.891 C74.605,10.473 75.152,11.272 75.418,12.301 L72.723,12.301 Z" id="Fill-237"></path>
                <polygon id="Fill-238" points="4.531 21.473 4.531 22.422 2.883 22.422 2.883 27.332 1.645 27.332 1.645 22.422 0 22.422 0 21.473"></polygon>
                <polygon id="Fill-239" points="7.559 22.422 7.559 23.891 9.637 23.891 9.637 24.82 7.559 24.82 7.559 26.375 9.902 26.375 9.902 27.332 6.32 27.332 6.32 21.465 9.902 21.465 9.902 22.422"></polygon>
                <path d="M11.613,24.395 C11.613,23.816 11.746,23.305 12.02,22.852 C12.297,22.391 12.672,22.035 13.141,21.785 C13.621,21.527 14.152,21.397 14.742,21.397 C15.434,21.397 16.039,21.566 16.559,21.902 C17.078,22.238 17.438,22.703 17.645,23.297 L16.223,23.297 C16.078,23.016 15.879,22.805 15.621,22.664 C15.367,22.527 15.07,22.457 14.734,22.457 C14.375,22.457 14.055,22.535 13.77,22.699 C13.492,22.855 13.273,23.078 13.117,23.371 C12.961,23.66 12.887,24.004 12.887,24.395 C12.887,24.781 12.961,25.121 13.117,25.418 C13.273,25.707 13.492,25.934 13.77,26.098 C14.055,26.254 14.375,26.332 14.734,26.332 C15.07,26.332 15.367,26.262 15.621,26.121 C15.879,25.977 16.078,25.766 16.223,25.484 L17.645,25.484 C17.438,26.082 17.078,26.551 16.559,26.887 C16.043,27.215 15.441,27.383 14.742,27.383 C14.152,27.383 13.621,27.254 13.141,27.004 C12.672,26.746 12.297,26.391 12.02,25.938 C11.746,25.484 11.613,24.969 11.613,24.395 Z" id="Fill-240"></path>
                <polygon id="Fill-241" points="24.711 21.473 24.711 27.332 23.473 27.332 23.473 24.84 20.828 24.84 20.828 27.332 19.59 27.332 19.59 21.473 20.828 21.473 20.828 23.883 23.473 23.883 23.473 21.473"></polygon>
                <polygon id="Fill-242" points="32.098 27.332 30.859 27.332 28.055 23.312 28.055 27.332 26.816 27.332 26.816 21.465 28.055 21.465 30.859 25.492 30.859 21.465 32.098 21.465"></polygon>
                <path d="M37.074,27.391 C36.496,27.391 35.965,27.262 35.48,27.004 C34.996,26.746 34.613,26.391 34.328,25.938 C34.047,25.48 33.906,24.961 33.906,24.387 C33.906,23.816 34.047,23.305 34.328,22.852 C34.613,22.391 34.996,22.035 35.48,21.777 C35.965,21.52 36.496,21.391 37.074,21.391 C37.656,21.391 38.188,21.52 38.664,21.777 C39.148,22.035 39.531,22.391 39.809,22.852 C40.09,23.305 40.23,23.816 40.23,24.387 C40.23,24.961 40.09,25.48 39.809,25.938 C39.531,26.391 39.148,26.746 38.664,27.004 C38.18,27.262 37.652,27.391 37.074,27.391 Z M37.074,26.34 C37.445,26.34 37.773,26.262 38.055,26.104 C38.34,25.945 38.559,25.715 38.719,25.418 C38.879,25.121 38.957,24.777 38.957,24.387 C38.957,23.996 38.879,23.652 38.719,23.363 C38.559,23.066 38.34,22.84 38.055,22.684 C37.773,22.527 37.445,22.449 37.074,22.449 C36.699,22.449 36.371,22.527 36.082,22.684 C35.797,22.84 35.578,23.066 35.418,23.363 C35.258,23.652 35.18,23.996 35.18,24.387 C35.18,24.777 35.258,25.121 35.418,25.418 C35.578,25.715 35.797,25.945 36.082,26.104 C36.371,26.262 36.699,26.34 37.074,26.34 Z" id="Fill-243"></path>
                <polygon id="Fill-244" points="43.277 26.397 45.312 26.397 45.312 27.332 42.039 27.332 42.039 21.473 43.277 21.473"></polygon>
                <path d="M49.852,27.391 C49.273,27.391 48.742,27.262 48.258,27.004 C47.773,26.746 47.391,26.391 47.109,25.938 C46.824,25.48 46.684,24.961 46.684,24.387 C46.684,23.816 46.824,23.305 47.109,22.852 C47.391,22.391 47.773,22.035 48.258,21.777 C48.742,21.52 49.273,21.391 49.852,21.391 C50.434,21.391 50.965,21.52 51.441,21.777 C51.926,22.035 52.309,22.391 52.586,22.852 C52.867,23.305 53.008,23.816 53.008,24.387 C53.008,24.961 52.867,25.48 52.586,25.938 C52.309,26.391 51.926,26.746 51.441,27.004 C50.961,27.262 50.43,27.391 49.852,27.391 Z M49.852,26.34 C50.223,26.34 50.551,26.262 50.832,26.104 C51.117,25.945 51.336,25.715 51.496,25.418 C51.656,25.121 51.734,24.777 51.734,24.387 C51.734,23.996 51.656,23.652 51.496,23.363 C51.336,23.066 51.117,22.84 50.832,22.684 C50.551,22.527 50.223,22.449 49.852,22.449 C49.48,22.449 49.148,22.527 48.859,22.684 C48.574,22.84 48.355,23.066 48.195,23.363 C48.035,23.652 47.957,23.996 47.957,24.387 C47.957,24.777 48.035,25.121 48.195,25.418 C48.355,25.715 48.574,25.945 48.859,26.104 C49.148,26.262 49.48,26.34 49.852,26.34 Z" id="Fill-245"></path>
                <path d="M59.113,23.234 C58.973,22.988 58.777,22.801 58.531,22.676 C58.285,22.547 57.996,22.48 57.664,22.48 C57.297,22.48 56.973,22.559 56.691,22.715 C56.41,22.871 56.188,23.098 56.027,23.387 C55.867,23.68 55.789,24.016 55.789,24.395 C55.789,24.785 55.867,25.129 56.027,25.418 C56.191,25.707 56.418,25.934 56.711,26.09 C56.996,26.246 57.332,26.324 57.719,26.324 C58.191,26.324 58.574,26.207 58.875,25.973 C59.176,25.729 59.375,25.398 59.469,24.973 L57.348,24.973 L57.348,24.074 L60.691,24.074 L60.691,25.098 C60.609,25.508 60.43,25.887 60.16,26.23 C59.887,26.578 59.539,26.858 59.105,27.07 C58.68,27.277 58.203,27.383 57.672,27.383 C57.078,27.383 56.539,27.254 56.055,27.004 C55.578,26.746 55.199,26.391 54.922,25.938 C54.648,25.484 54.516,24.969 54.516,24.395 C54.516,23.816 54.648,23.305 54.922,22.852 C55.199,22.391 55.578,22.035 56.055,21.785 C56.539,21.527 57.074,21.397 57.664,21.397 C58.359,21.397 58.965,21.562 59.477,21.887 C59.992,22.203 60.344,22.656 60.539,23.234 L59.113,23.234 Z" id="Fill-246"></path>
                <polygon id="Fill-247" points="62.492 27.332 63.73 27.332 63.73 21.473 62.492 21.473"></polygon>
                <polygon id="Fill-248" points="67.078 22.422 67.078 23.891 69.156 23.891 69.156 24.82 67.078 24.82 67.078 26.375 69.422 26.375 69.422 27.332 65.84 27.332 65.84 21.465 69.422 21.465 69.422 22.422"></polygon>
                <path d="M73.566,27.391 C73.133,27.391 72.746,27.32 72.398,27.18 C72.055,27.039 71.785,26.84 71.582,26.574 C71.383,26.312 71.277,26.004 71.273,25.645 L72.602,25.645 C72.617,25.887 72.707,26.074 72.867,26.215 C73.031,26.354 73.254,26.426 73.539,26.426 C73.828,26.426 74.055,26.359 74.219,26.23 C74.383,26.098 74.465,25.926 74.465,25.711 C74.465,25.539 74.41,25.395 74.297,25.285 C74.188,25.172 74.047,25.086 73.875,25.023 C73.711,24.957 73.48,24.883 73.184,24.805 C72.781,24.695 72.457,24.586 72.203,24.477 C71.953,24.367 71.738,24.203 71.555,23.984 C71.379,23.758 71.289,23.461 71.289,23.094 C71.289,22.746 71.383,22.445 71.566,22.188 C71.746,21.93 72.004,21.734 72.336,21.602 C72.664,21.461 73.043,21.391 73.469,21.391 C74.105,21.391 74.621,21.539 75.016,21.836 C75.418,22.125 75.637,22.535 75.68,23.059 L74.316,23.059 C74.305,22.859 74.215,22.695 74.043,22.566 C73.879,22.43 73.656,22.363 73.379,22.363 C73.137,22.363 72.941,22.422 72.797,22.539 C72.652,22.656 72.582,22.828 72.582,23.051 C72.582,23.207 72.637,23.34 72.742,23.445 C72.855,23.547 72.988,23.629 73.148,23.699 C73.312,23.758 73.543,23.832 73.84,23.914 C74.242,24.027 74.566,24.141 74.82,24.25 C75.074,24.363 75.293,24.531 75.477,24.754 C75.66,24.979 75.75,25.272 75.75,25.637 C75.75,25.949 75.664,26.242 75.492,26.508 C75.324,26.777 75.07,26.992 74.742,27.156 C74.41,27.312 74.02,27.391 73.566,27.391 Z" id="Fill-249"></path>
            </g>
        </g>
    </g>
</svg>