<svg width="170" height="32" viewBox="0 0 170 32" fill="none" xmlns="http://www.w3.org/2000/svg">
<path fill-rule="evenodd" clip-rule="evenodd" d="M97.833 11.7L97.9051 12.978H99.2389V6.282H96.3009V7.704H97.5987V7.902C97.5987 8.634 97.5686 9.24 97.5085 9.72C97.4485 10.188 97.3583 10.566 97.2382 10.854C97.13 11.13 96.9978 11.322 96.8416 11.43C96.6854 11.538 96.5172 11.592 96.3369 11.592C96.1206 11.592 95.9344 11.52 95.7782 11.376C95.634 11.232 95.5138 10.974 95.4177 10.602C95.3215 10.218 95.2495 9.69 95.2014 9.018C95.1653 8.346 95.1473 7.488 95.1473 6.444C95.1473 5.4 95.1713 4.554 95.2194 3.906C95.2675 3.258 95.3456 2.76 95.4537 2.412C95.5619 2.052 95.7001 1.812 95.8683 1.692C96.0365 1.56 96.2348 1.494 96.4631 1.494C96.9077 1.494 97.2021 1.71 97.3463 2.142C97.5025 2.574 97.5927 3.168 97.6167 3.924H99.1848C99.1848 3.324 99.1368 2.784 99.0406 2.304C98.9565 1.812 98.8123 1.398 98.6081 1.062C98.4038 0.713999 98.1274 0.45 97.7789 0.27C97.4304 0.0900006 96.9858 0 96.4451 0C95.9284 0 95.4718 0.0960004 95.0752 0.288C94.6907 0.48 94.3662 0.822001 94.1019 1.314C93.8495 1.806 93.6573 2.472 93.5251 3.312C93.3929 4.14 93.3268 5.19 93.3268 6.462C93.3268 7.65 93.3689 8.664 93.453 9.504C93.5371 10.344 93.6753 11.034 93.8676 11.574C94.0598 12.114 94.3182 12.51 94.6426 12.762C94.9671 13.014 95.3636 13.14 95.8322 13.14C96.2889 13.14 96.6734 13.038 96.9858 12.834C97.2983 12.63 97.5626 12.252 97.7789 11.7H97.833ZM48.765 12.978L48.3144 9.99H46.2776L45.863 12.978H44.0605L46.0973 0.125999H48.4946L50.6035 12.978H48.765ZM47.269 2.124H47.2329L46.3857 8.46H48.1882L47.269 2.124ZM59.0601 12.978V3.582H59.024L57.6001 12.978H56.068L54.6621 3.582H54.626V12.978H52.9858V0.125999H55.4732L56.825 9.414H56.8611L58.3031 0.125999H60.6823V12.978H59.0601ZM67.3389 9.99L67.7896 12.978H69.6281L67.5192 0.125999H65.1219L63.0851 12.978H64.8876L65.3021 9.99H67.3389ZM66.2575 2.124H66.2935L67.2128 8.46H65.4103L66.2575 2.124ZM71.7399 12.978V11.628L75.1466 1.8H71.9562V0.125999H77.2375V1.656L73.8849 11.304H77.2555V12.978H71.7399ZM79.9568 0.125999V12.978H81.7593V0.125999H79.9568ZM86.3928 4.23H86.3567V12.978H84.7165V0.125999H86.6812L88.8802 8.604H88.9162V0.125999H90.5565V12.978H88.6819L86.3928 4.23ZM107.184 12.978V0.125999H108.969V11.304H111.6V12.978H107.184ZM114.123 0.125999V12.978H115.925V0.125999H114.123ZM124.164 9.558C124.164 10.734 123.929 11.628 123.461 12.24C122.992 12.84 122.295 13.14 121.37 13.14C120.925 13.14 120.535 13.086 120.198 12.978C119.874 12.858 119.597 12.648 119.369 12.348C119.153 12.048 118.985 11.64 118.864 11.124C118.744 10.596 118.672 9.93 118.648 9.126H120.306C120.318 9.594 120.349 9.99 120.397 10.314C120.445 10.626 120.511 10.878 120.595 11.07C120.679 11.262 120.781 11.4 120.901 11.484C121.033 11.556 121.19 11.592 121.37 11.592C122.067 11.592 122.415 11.046 122.415 9.954C122.415 9.438 122.325 9.006 122.145 8.658C121.965 8.298 121.736 7.98 121.46 7.704C121.184 7.416 120.883 7.14 120.559 6.876C120.246 6.612 119.952 6.312 119.676 5.976C119.399 5.64 119.171 5.25 118.991 4.806C118.81 4.35 118.72 3.792 118.72 3.132C118.72 2.124 118.943 1.35 119.387 0.809999C119.832 0.27 120.505 0 121.406 0C121.923 0 122.349 0.0840008 122.686 0.252001C123.022 0.408001 123.287 0.642 123.479 0.953999C123.683 1.254 123.821 1.626 123.893 2.07C123.978 2.502 124.02 2.994 124.02 3.546H122.542C122.53 3.234 122.505 2.952 122.469 2.7C122.445 2.436 122.397 2.214 122.325 2.034C122.253 1.854 122.151 1.716 122.019 1.62C121.887 1.524 121.712 1.476 121.496 1.476C121.304 1.476 121.142 1.518 121.009 1.602C120.889 1.686 120.793 1.794 120.721 1.926C120.649 2.058 120.601 2.214 120.577 2.394C120.553 2.562 120.541 2.736 120.541 2.916C120.541 3.42 120.631 3.84 120.811 4.176C120.991 4.512 121.214 4.818 121.478 5.094C121.742 5.37 122.031 5.634 122.343 5.886C122.668 6.138 122.962 6.426 123.226 6.75C123.491 7.074 123.713 7.464 123.893 7.92C124.074 8.364 124.164 8.91 124.164 9.558ZM128.359 1.8V12.978H130.143V1.8H132.054V0.125999H126.466V1.8H128.359ZM134.58 12.978V0.125999H139.177V1.8H136.383V5.526H138.87V7.092H136.383V11.304H139.321V12.978H134.58ZM143.568 4.23H143.604L145.893 12.978H147.767V0.125999H146.127V8.604H146.091L143.892 0.125999H141.927V12.978H143.568V4.23ZM150.718 12.978V0.125999H152.52V12.978H150.718ZM157.118 4.23H157.154L159.443 12.978H161.318V0.125999H159.677V8.604H159.641L157.442 0.125999H155.478V12.978H157.118V4.23ZM168.666 12.978L168.594 11.7H168.54C168.324 12.252 168.059 12.63 167.747 12.834C167.435 13.038 167.05 13.14 166.593 13.14C166.125 13.14 165.728 13.014 165.404 12.762C165.079 12.51 164.821 12.114 164.629 11.574C164.436 11.034 164.298 10.344 164.214 9.504C164.13 8.664 164.088 7.65 164.088 6.462C164.088 5.19 164.154 4.14 164.286 3.312C164.418 2.472 164.611 1.806 164.863 1.314C165.127 0.822001 165.452 0.48 165.836 0.288C166.233 0.0960004 166.69 0 167.206 0C167.747 0 168.192 0.0900006 168.54 0.27C168.889 0.45 169.165 0.713999 169.369 1.062C169.574 1.398 169.718 1.812 169.802 2.304C169.898 2.784 169.946 3.324 169.946 3.924H168.378C168.354 3.168 168.264 2.574 168.108 2.142C167.963 1.71 167.669 1.494 167.224 1.494C166.996 1.494 166.798 1.56 166.629 1.692C166.461 1.812 166.323 2.052 166.215 2.412C166.107 2.76 166.029 3.258 165.981 3.906C165.933 4.554 165.909 5.4 165.909 6.444C165.909 7.488 165.927 8.346 165.963 9.018C166.011 9.69 166.083 10.218 166.179 10.602C166.275 10.974 166.395 11.232 166.539 11.376C166.696 11.52 166.882 11.592 167.098 11.592C167.278 11.592 167.447 11.538 167.603 11.43C167.759 11.322 167.891 11.13 167.999 10.854C168.12 10.566 168.21 10.188 168.27 9.72C168.33 9.24 168.36 8.634 168.36 7.902V7.704H167.062V6.282H170V12.978H168.666ZM31.1546 24.8721C31.2898 23.4656 30.2925 22.1915 28.854 21.9329L27.0454 19.5127C27.1563 19.3153 27.2413 19.1052 27.2984 18.8874L29.0499 18.2112C29.8588 19.1002 31.169 19.3846 32.2942 18.9155C33.4193 18.4463 34.1031 17.3305 33.9873 16.1525C33.8715 14.9745 32.9823 14.003 31.7858 13.7465L30.3669 11.0142C31.3623 10.0351 31.4483 8.49428 30.5675 7.4178C29.6867 6.34122 28.1142 6.06491 26.8971 6.77288L25.3149 5.50471C25.4346 5.20255 25.4973 4.88223 25.4999 4.55869C25.5025 3.44161 24.7996 2.43576 23.7257 2.0198C22.6518 1.60374 21.4236 1.86156 20.6256 2.6705L17.8256 1.9948C17.4903 0.822268 16.3888 0.00745538 15.1287 8.29654e-05C13.8687 -0.00728945 12.7571 0.794487 12.407 1.96296L8.665 2.68546C7.68894 1.66935 6.07793 1.52329 4.92302 2.34633C3.76811 3.16926 3.43796 4.69845 4.15603 5.89834L2.32245 8.25569C1.00849 8.48499 0.0402918 9.57108 0.00122294 10.8595C-0.037846 12.148 0.862953 13.2869 2.16075 13.59L3.67691 17.2035C2.84506 17.9918 2.59947 19.1921 3.05834 20.2267C3.5172 21.2612 4.58656 21.918 5.75155 21.8808C6.91653 21.8436 7.93874 21.1202 8.32589 20.0587H13.3963C13.8197 21.3159 15.1407 22.0771 16.4877 21.8401L19.6231 26.4442C18.8187 27.3052 18.6659 28.5628 19.2418 29.5801C19.8178 30.5974 20.9969 31.1523 22.1818 30.9635C23.3667 30.7747 24.2986 29.8836 24.5055 28.7415L26.846 26.9355C27.2913 27.2065 27.8068 27.3512 28.3333 27.3529C29.7965 27.3539 31.0196 26.2786 31.1546 24.8721ZM31.1667 15.4998C31.6391 15.4988 32.0395 15.835 32.1041 16.2866C32.1689 16.7382 31.8779 17.1667 31.4231 17.2896C30.9684 17.4125 30.4893 17.192 30.3018 16.7735C30.3002 16.7694 30.2998 16.7653 30.2994 16.7611C30.299 16.7568 30.2986 16.7524 30.2969 16.7482L30.2909 16.7393C30.247 16.6351 30.2236 16.524 30.2222 16.4115C30.2228 15.9083 30.6453 15.5003 31.1667 15.4998ZM27.4088 8.93214C27.4994 8.50892 27.8858 8.20537 28.3335 8.20569C28.8551 8.20569 29.2779 8.61384 29.2779 9.11741C29.2779 9.62098 28.8551 10.0291 28.3335 10.0291C28.2166 10.0277 28.1012 10.0052 27.9929 9.96268L27.9848 9.95755C27.9806 9.95592 27.9763 9.95556 27.972 9.9552C27.9677 9.95484 27.9635 9.95448 27.9593 9.95295C27.548 9.78189 27.318 9.35547 27.4088 8.93214ZM26.4692 11.1611L24.724 15.3738L21.6645 13.011C22.0796 12.6692 22.3828 12.2184 22.5378 11.7134L26.2798 10.9909C26.3336 11.0459 26.392 11.0955 26.4509 11.1455L26.4692 11.1611ZM25.4637 18.4815C25.3366 18.9199 24.8935 19.2005 24.4261 19.1383C23.9589 19.0762 23.6108 18.6905 23.6112 18.2351C23.6118 17.7317 24.0342 17.3238 24.5556 17.3233C24.6725 17.3247 24.7879 17.3473 24.8962 17.3898L24.9043 17.3949C24.9087 17.3966 24.9132 17.3971 24.9177 17.3976C24.9208 17.3979 24.9238 17.3982 24.9268 17.3988C24.9279 17.3991 24.9291 17.3994 24.9303 17.3998C25.3631 17.5811 25.5909 18.0428 25.4637 18.4815ZM22.6667 3.64697C23.1883 3.64697 23.6111 4.05513 23.6111 4.55869C23.6111 5.06226 23.1882 5.47042 22.6667 5.47042C22.1452 5.47042 21.7223 5.06226 21.7223 4.55869C21.7229 4.05534 22.1453 3.64751 22.6667 3.64697ZM17.6967 3.84314L19.8539 4.36381C19.8519 4.39031 19.8481 4.41633 19.8444 4.44232C19.839 4.48068 19.8335 4.519 19.8335 4.5588C19.8352 6.06876 21.1027 7.29247 22.6668 7.29408C23.1733 7.29151 23.6697 7.15656 24.103 6.90344L25.6853 8.17161C25.5656 8.47377 25.5028 8.7941 25.5002 9.11763C25.5002 9.14886 25.5045 9.17896 25.5089 9.20908C25.5122 9.23212 25.5156 9.25518 25.517 9.27875L22.441 9.87261C22.0553 9.00587 21.2343 8.39203 20.2686 8.24832L16.8106 4.91011C17.1945 4.63231 17.4994 4.26529 17.6967 3.84314ZM20.7779 10.9411C20.7779 11.4446 20.3551 11.8528 19.8335 11.8528C19.3121 11.8523 18.8895 11.4444 18.8891 10.9411C18.8891 10.4375 19.3119 10.0293 19.8335 10.0293C20.3551 10.0293 20.7779 10.4375 20.7779 10.9411ZM15.1113 1.82342C15.6329 1.82342 16.0557 2.23157 16.0557 2.73514C16.0557 3.23871 15.6329 3.64686 15.1113 3.64686C14.5896 3.64686 14.1669 3.23871 14.1669 2.73514C14.1673 2.2319 14.5899 1.82395 15.1113 1.82342ZM15.2984 6.02922L18.1339 8.76631C17.6931 9.08782 17.3594 9.52685 17.1742 10.0292H14.9372C14.7141 9.42556 14.2783 8.91686 13.7059 8.59205L15.2984 6.02922ZM9.42778 4.39768L12.5037 3.80382C12.7451 4.34126 13.1586 4.79002 13.6833 5.08417L11.9689 7.84263L9.00522 6.00679C9.29077 5.57395 9.44306 5.07177 9.44461 4.55869C9.44461 4.52744 9.44023 4.49732 9.43586 4.46721V4.4672L9.43585 4.46719C9.43251 4.44418 9.42917 4.42118 9.42778 4.39768ZM13.2223 10.9411C13.2223 11.4446 12.7996 11.8528 12.2779 11.8528C11.7565 11.8523 11.334 11.4444 11.3335 10.9411C11.3335 10.4375 11.7563 10.0293 12.2779 10.0293C12.7996 10.0293 13.2223 10.4375 13.2223 10.9411ZM6.61128 3.64697C7.1329 3.64697 7.55569 4.05513 7.55569 4.55869C7.55569 5.06226 7.1329 5.47042 6.61128 5.47042C6.08966 5.47042 5.66688 5.06226 5.66688 4.55869C5.66732 4.05534 6.08988 3.64751 6.61128 3.64697ZM5.58332 7.1009C6.15873 7.32998 6.79932 7.35615 7.39277 7.17494L10.3088 8.98118C9.99843 9.27469 9.76225 9.63338 9.6187 10.0292H5.49278C5.28659 9.46488 4.89458 8.98118 4.37661 8.65242L5.58332 7.1009ZM2.83344 11.8528C2.31182 11.8528 1.88904 11.4446 1.88904 10.9411C1.88959 10.4377 2.31204 10.0298 2.83344 10.0293C3.35506 10.0293 3.77785 10.4375 3.77785 10.9411C3.77785 11.4446 3.35506 11.8528 2.83344 11.8528ZM5.66677 20.0586C5.14515 20.0586 4.72236 19.6504 4.72236 19.1469C4.72236 18.6433 5.14515 18.2352 5.66677 18.2352C6.18839 18.2352 6.61117 18.6434 6.61117 19.1469C6.61073 19.6502 6.18816 20.0581 5.66677 20.0586ZM6.20388 16.464C6.02702 16.43 5.84706 16.4125 5.66677 16.4115C5.60533 16.4115 5.54614 16.4193 5.48691 16.4271L5.48685 16.4271H5.48684C5.45592 16.4312 5.42499 16.4353 5.39373 16.4382L4.10678 13.371C4.75302 13.0548 5.24896 12.5114 5.49267 11.8528H9.61859C9.7887 12.312 10.0832 12.7188 10.4715 13.0307L6.20388 16.464ZM13.3964 18.2351H8.326C8.22517 17.962 8.07963 17.7062 7.89502 17.4775L12.5334 13.746L14.1128 17.166C13.7901 17.4628 13.5446 17.8292 13.3964 18.2351ZM14.9372 11.8528H17.1743C17.3973 12.4565 17.8331 12.9652 18.4056 13.29L16.4419 16.4493C16.3142 16.4282 16.1853 16.4156 16.0558 16.4116C16.0119 16.4116 15.9695 16.4172 15.9272 16.4229C15.899 16.4266 15.8708 16.4304 15.8421 16.4325L14.2208 12.922C14.5435 12.6251 14.789 12.2587 14.9372 11.8528ZM16.0557 20.0586C15.534 20.0586 15.1113 19.6504 15.1113 19.1469C15.1113 18.6433 15.5342 18.2352 16.0557 18.2352C16.5773 18.2352 17.0001 18.6434 17.0001 19.1469C16.9996 19.6502 16.5771 20.0581 16.0557 20.0586ZM20.0871 14.1282L22.7246 16.1652C22.3097 16.5071 22.0063 16.9579 21.8514 17.4629L18.6632 18.0784C18.5318 17.7871 18.349 17.52 18.1228 17.2893L20.0871 14.1282ZM21.7223 29.1762C21.2007 29.1762 20.7779 28.768 20.7779 28.2644C20.7779 27.7609 21.2007 27.3527 21.7223 27.3527C22.2439 27.3527 22.6667 27.7609 22.6667 28.2644C22.6663 28.7678 22.2437 29.1757 21.7223 29.1762ZM25.5 24.6174C25.5035 24.9221 25.5603 25.2239 25.6679 25.5103L24.0736 26.7406C23.4775 25.8417 22.3777 25.3797 21.2901 25.5714L18.1548 20.9672C18.4349 20.6657 18.6416 20.3077 18.7599 19.9192L21.9481 19.3036C22.5559 20.6895 24.2102 21.3398 25.6479 20.7579L26.813 22.317C25.9969 22.8169 25.5017 23.6843 25.5 24.6174ZM26.4199 16.1915L28.2219 11.8419C28.2391 11.8426 28.2559 11.8449 28.2727 11.8472L28.2727 11.8472C28.2927 11.85 28.3126 11.8528 28.3334 11.8528C28.4471 11.8485 28.5606 11.8374 28.673 11.8197L29.8165 14.0219C28.9061 14.4961 28.337 15.4129 28.3334 16.4116C28.3334 16.4315 28.3362 16.4507 28.3391 16.4699C28.3415 16.4862 28.344 16.5026 28.3447 16.5195L27.0749 17.0096C26.9125 16.6992 26.6901 16.4216 26.4199 16.1915ZM28.3334 25.5292C27.8117 25.5292 27.389 25.121 27.389 24.6174C27.3895 24.1141 27.812 23.7061 28.3334 23.7057C28.855 23.7057 29.2778 24.1139 29.2778 24.6174C29.2778 25.121 28.855 25.5292 28.3334 25.5292ZM65.1638 26.5999C65.1398 27.4519 65.0677 28.1779 64.9475 28.7779C64.8273 29.3659 64.6531 29.8459 64.4248 30.2179C64.2085 30.5899 63.9201 30.8599 63.5596 31.0279C63.2111 31.1959 62.7905 31.2799 62.2979 31.2799C61.7331 31.2799 61.2644 31.1599 60.8919 30.9199C60.5314 30.6799 60.243 30.2959 60.0267 29.7679C59.8104 29.2399 59.6542 28.5559 59.5581 27.7159C59.474 26.8759 59.4319 25.8559 59.4319 24.6559C59.4319 23.4319 59.486 22.4059 59.5942 21.5779C59.7023 20.7499 59.8765 20.0839 60.1169 19.5799C60.3572 19.0639 60.6696 18.6979 61.0542 18.4819C61.4387 18.2539 61.9133 18.1399 62.4781 18.1399C63.0068 18.1399 63.4394 18.2299 63.7759 18.4099C64.1244 18.5899 64.3947 18.8599 64.587 19.2199C64.7913 19.5679 64.9355 20.0059 65.0196 20.5339C65.1037 21.0619 65.1458 21.6679 65.1458 22.3519H63.5416C63.5296 21.4279 63.4514 20.7439 63.3072 20.2999C63.163 19.8559 62.8867 19.6339 62.4781 19.6339C62.2738 19.6339 62.0936 19.6999 61.9374 19.8319C61.7932 19.9519 61.667 20.1979 61.5588 20.5699C61.4627 20.9299 61.3846 21.4399 61.3245 22.0999C61.2765 22.7479 61.2524 23.5999 61.2524 24.6559C61.2524 25.6879 61.2705 26.5339 61.3065 27.1939C61.3546 27.8419 61.4207 28.3579 61.5048 28.7419C61.6009 29.1139 61.7151 29.3719 61.8472 29.5159C61.9914 29.6599 62.1657 29.7319 62.37 29.7319C62.5502 29.7319 62.7064 29.6839 62.8386 29.5879C62.9708 29.4919 63.0789 29.3239 63.163 29.0839C63.2592 28.8439 63.3313 28.5259 63.3793 28.1299C63.4394 27.7219 63.4815 27.2119 63.5055 26.5999H65.1638ZM46.0433 19.9399V31.1179H47.8278V19.9399H49.7384V18.2659H44.1507V19.9399H46.0433ZM52.265 18.2659V31.1179H57.0055V29.4439H54.0675V25.2319H56.5549V23.6659H54.0675V19.9399H56.8613V18.2659H52.265ZM71.6599 25.1599V31.1179H73.4624V18.2659H71.6599V23.4319H69.6772V18.2659H67.8747V31.1179H69.6772V25.1599H71.6599ZM78.1127 22.3699H78.0767V31.1179H76.4364V18.2659H78.4011L80.6002 26.7439H80.6362V18.2659H82.2765V31.1179H80.4019L78.1127 22.3699ZM90.8868 27.7339C90.9829 26.8939 91.031 25.8799 91.031 24.6919C91.031 23.5279 90.9889 22.5319 90.9048 21.7039C90.8327 20.8639 90.6825 20.1859 90.4542 19.6699C90.2379 19.1419 89.9315 18.7579 89.5349 18.5179C89.1504 18.2659 88.6457 18.1399 88.0209 18.1399C87.408 18.1399 86.9093 18.2659 86.5248 18.5179C86.1403 18.7699 85.8399 19.1659 85.6236 19.7059C85.4073 20.2339 85.2571 20.9119 85.1729 21.7399C85.0888 22.5559 85.0468 23.5399 85.0468 24.6919C85.0468 25.8799 85.0888 26.8939 85.1729 27.7339C85.2571 28.5619 85.4073 29.2399 85.6236 29.7679C85.8399 30.2959 86.1403 30.6799 86.5248 30.9199C86.9093 31.1599 87.402 31.2799 88.0028 31.2799C88.6037 31.2799 89.0963 31.1599 89.4809 30.9199C89.8774 30.6799 90.1898 30.2959 90.4181 29.7679C90.6465 29.2399 90.8027 28.5619 90.8868 27.7339ZM89.1564 22.2259C89.1925 22.8619 89.2105 23.6839 89.2105 24.6919C89.2105 25.6279 89.1865 26.4139 89.1384 27.0499C89.1023 27.6739 89.0362 28.1779 88.9401 28.5619C88.844 28.9339 88.7178 29.2039 88.5616 29.3719C88.4174 29.5279 88.2311 29.6059 88.0028 29.6059C87.7865 29.6059 87.6003 29.5399 87.4441 29.4079C87.2999 29.2639 87.1857 29.0059 87.1016 28.6339C87.0175 28.2619 86.9574 27.7639 86.9213 27.1399C86.8853 26.5039 86.8673 25.6879 86.8673 24.6919C86.8673 23.7439 86.8853 22.9579 86.9213 22.3339C86.9574 21.6979 87.0175 21.1939 87.1016 20.8219C87.1977 20.4379 87.3179 20.1739 87.4621 20.0299C87.6183 19.8739 87.8046 19.7959 88.0209 19.7959C88.2492 19.7959 88.4414 19.8619 88.5976 19.9939C88.7539 20.1259 88.874 20.3719 88.9581 20.7319C89.0543 21.0919 89.1204 21.5899 89.1564 22.2259ZM93.9686 18.2659H95.753V29.4439H98.3847V31.1179H93.9686V18.2659ZM106.567 27.7339C106.663 26.8939 106.711 25.8799 106.711 24.6919C106.711 23.5279 106.669 22.5319 106.585 21.7039C106.513 20.8639 106.363 20.1859 106.134 19.6699C105.918 19.1419 105.612 18.7579 105.215 18.5179C104.831 18.2659 104.326 18.1399 103.701 18.1399C103.088 18.1399 102.589 18.2659 102.205 18.5179C101.82 18.7699 101.52 19.1659 101.304 19.7059C101.087 20.2339 100.937 20.9119 100.853 21.7399C100.769 22.5559 100.727 23.5399 100.727 24.6919C100.727 25.8799 100.769 26.8939 100.853 27.7339C100.937 28.5619 101.087 29.2399 101.304 29.7679C101.52 30.2959 101.82 30.6799 102.205 30.9199C102.589 31.1599 103.082 31.2799 103.683 31.2799C104.284 31.2799 104.776 31.1599 105.161 30.9199C105.558 30.6799 105.87 30.2959 106.098 29.7679C106.327 29.2399 106.483 28.5619 106.567 27.7339ZM104.837 22.2259C104.873 22.8619 104.891 23.6839 104.891 24.6919C104.891 25.6279 104.867 26.4139 104.818 27.0499C104.782 27.6739 104.716 28.1779 104.62 28.5619C104.524 28.9339 104.398 29.2039 104.242 29.3719C104.098 29.5279 103.911 29.6059 103.683 29.6059C103.467 29.6059 103.28 29.5399 103.124 29.4079C102.98 29.2639 102.866 29.0059 102.782 28.6339C102.698 28.2619 102.638 27.7639 102.601 27.1399C102.565 26.5039 102.547 25.6879 102.547 24.6919C102.547 23.7439 102.565 22.9579 102.601 22.3339C102.638 21.6979 102.698 21.1939 102.782 20.8219C102.878 20.4379 102.998 20.1739 103.142 20.0299C103.298 19.8739 103.485 19.7959 103.701 19.7959C103.929 19.7959 104.122 19.8619 104.278 19.9939C104.434 20.1259 104.554 20.3719 104.638 20.7319C104.734 21.0919 104.8 21.5899 104.837 22.2259ZM113.885 31.1179L113.812 29.8399H113.758C113.542 30.3919 113.278 30.7699 112.965 30.9739C112.653 31.1779 112.268 31.2799 111.812 31.2799C111.343 31.2799 110.946 31.1539 110.622 30.9019C110.298 30.6499 110.039 30.2539 109.847 29.7139C109.655 29.1739 109.517 28.4839 109.432 27.6439C109.348 26.8039 109.306 25.7899 109.306 24.6019C109.306 23.3299 109.372 22.2799 109.505 21.4519C109.637 20.6119 109.829 19.9459 110.081 19.4539C110.346 18.9619 110.67 18.6199 111.055 18.4279C111.451 18.2359 111.908 18.1399 112.425 18.1399C112.965 18.1399 113.41 18.2299 113.758 18.4099C114.107 18.5899 114.383 18.8539 114.587 19.2019C114.792 19.5379 114.936 19.9519 115.02 20.4439C115.116 20.9239 115.164 21.4639 115.164 22.0639H113.596C113.572 21.3079 113.482 20.7139 113.326 20.2819C113.182 19.8499 112.887 19.6339 112.443 19.6339C112.214 19.6339 112.016 19.6999 111.848 19.8319C111.68 19.9519 111.541 20.1919 111.433 20.5519C111.325 20.8999 111.247 21.3979 111.199 22.0459C111.151 22.6939 111.127 23.5399 111.127 24.5839C111.127 25.6279 111.145 26.4859 111.181 27.1579C111.229 27.8299 111.301 28.3579 111.397 28.7419C111.493 29.1139 111.613 29.3719 111.758 29.5159C111.914 29.6599 112.1 29.7319 112.316 29.7319C112.497 29.7319 112.665 29.6779 112.821 29.5699C112.977 29.4619 113.109 29.2699 113.218 28.9939C113.338 28.7059 113.428 28.3279 113.488 27.8599C113.548 27.3799 113.578 26.7739 113.578 26.0419V25.8439H112.28V24.4219H115.218V31.1179H113.885ZM119.904 18.2659H118.101V31.1179H119.904V18.2659ZM122.861 18.2659H127.457V19.9399H124.663V23.6659H127.151V25.2319H124.663V29.4439H127.601V31.1179H122.861V18.2659ZM134.786 30.3799C135.255 29.7679 135.489 28.8739 135.489 27.6979C135.489 27.0499 135.399 26.5039 135.219 26.0599C135.039 25.6039 134.816 25.2139 134.552 24.8899C134.288 24.5659 133.993 24.2779 133.669 24.0259C133.356 23.7739 133.068 23.5099 132.803 23.2339C132.539 22.9579 132.317 22.6519 132.137 22.3159C131.956 21.9799 131.866 21.5599 131.866 21.0559C131.866 20.8759 131.878 20.7019 131.902 20.5339C131.926 20.3539 131.974 20.1979 132.046 20.0659C132.119 19.9339 132.215 19.8259 132.335 19.7419C132.467 19.6579 132.629 19.6159 132.821 19.6159C133.038 19.6159 133.212 19.6639 133.344 19.7599C133.476 19.8559 133.579 19.9939 133.651 20.1739C133.723 20.3539 133.771 20.5759 133.795 20.8399C133.831 21.0919 133.855 21.3739 133.867 21.6859H135.345C135.345 21.1339 135.303 20.6419 135.219 20.2099C135.147 19.7659 135.008 19.3939 134.804 19.0939C134.612 18.7819 134.348 18.5479 134.011 18.3919C133.675 18.2239 133.248 18.1399 132.731 18.1399C131.83 18.1399 131.157 18.4099 130.713 18.9499C130.268 19.4899 130.046 20.2639 130.046 21.2719C130.046 21.9319 130.136 22.4899 130.316 22.9459C130.496 23.3899 130.725 23.7799 131.001 24.1159C131.277 24.4519 131.572 24.7519 131.884 25.0159C132.209 25.2799 132.509 25.5559 132.785 25.8439C133.062 26.1199 133.29 26.4379 133.47 26.7979C133.651 27.1459 133.741 27.5779 133.741 28.0939C133.741 29.1859 133.392 29.7319 132.695 29.7319C132.515 29.7319 132.359 29.6959 132.227 29.6239C132.107 29.5399 132.004 29.4019 131.92 29.2099C131.836 29.0179 131.77 28.7659 131.722 28.4539C131.674 28.1299 131.644 27.7339 131.632 27.2659H129.974C129.998 28.0699 130.07 28.7359 130.19 29.2639C130.31 29.7799 130.478 30.1879 130.695 30.4879C130.923 30.7879 131.199 30.9979 131.524 31.1179C131.86 31.2259 132.251 31.2799 132.695 31.2799C133.621 31.2799 134.318 30.9799 134.786 30.3799Z" fill="white"/>
</svg>
