<svg width="123" height="79" viewBox="0 0 123 79" fill="none" xmlns="http://www.w3.org/2000/svg">
<path d="M56.9616 23.38C57.1403 23.38 57.3172 23.3467 57.4823 23.2819C57.6473 23.2172 57.7973 23.1222 57.9236 23.0026C58.05 22.8829 58.1502 22.7409 58.2186 22.5845C58.287 22.4282 58.3221 22.2606 58.3221 22.0914C58.3221 21.9222 58.287 21.7546 58.2186 21.5983C58.1502 21.442 58.05 21.2999 57.9236 21.1803C57.7973 21.0606 57.6473 20.9657 57.4823 20.9009C57.3172 20.8362 57.1403 20.8029 56.9616 20.8029C52.4188 20.8029 48.7211 17.8803 48.7211 14.2886C48.7211 14.1194 48.6859 13.9518 48.6175 13.7955C48.5492 13.6391 48.449 13.4971 48.3226 13.3774C48.1963 13.2578 48.0463 13.1628 47.8812 13.0981C47.7161 13.0333 47.5392 13 47.3606 13C47.1819 13 47.005 13.0333 46.8399 13.0981C46.6748 13.1628 46.5248 13.2578 46.3985 13.3774C46.2722 13.4971 46.1719 13.6391 46.1036 13.7955C46.0352 13.9518 46 14.1194 46 14.2886C46.0018 19.3017 50.918 23.38 56.9616 23.38Z" fill="#BAD036"/>
<path d="M103.65 45.8165C105.076 43.7495 105.831 41.3326 105.823 38.8639C105.862 36.8277 105.356 34.8153 104.351 33.0148C103.346 31.2144 101.876 29.6846 100.077 28.5686V28.5304C100.122 26.0805 99.345 23.6803 97.8575 21.6755C96.37 19.6708 94.249 18.1649 91.8 17.3749C91.2722 12.7819 86.3227 9.17023 80.3229 9.17023C79.9723 9.17023 79.6058 9.18351 79.2482 9.20842C78.6674 7.55841 77.5985 6.10106 76.1687 5.00964C74.7388 3.91821 73.0081 3.23861 71.1823 3.05165C69.3565 2.86469 67.5124 3.17822 65.8693 3.95496C64.2262 4.73171 62.8531 5.93901 61.9134 7.43331C60.9723 5.94113 59.599 4.73603 57.9563 3.96112C56.3136 3.1862 54.4706 2.87401 52.6462 3.06161C50.8217 3.24921 49.0925 3.92872 47.6636 5.01947C46.2348 6.11022 45.1665 7.56638 44.5856 9.21506C44.2349 9.18849 43.8702 9.17687 43.5108 9.17687C37.504 9.17687 32.5545 12.7835 32.025 17.3716C29.576 18.1616 27.455 19.6674 25.9675 21.6722C24.4799 23.677 23.7027 26.0771 23.7477 28.527V28.5652C21.9491 29.6813 20.4786 31.211 19.4738 33.0115C18.469 34.812 17.9627 36.8244 18.0021 38.8605C17.994 41.3292 18.7492 43.7462 20.1745 45.8132C18.7495 47.8808 17.9949 50.2984 18.0039 52.7675C17.9869 54.4114 18.317 56.042 18.9749 57.5633C19.6328 59.0847 20.6051 60.4661 21.8348 61.6264C21.8156 61.9004 21.8068 62.1694 21.8068 62.4318C21.8068 68.9959 26.9808 74.3345 33.3399 74.3345C33.7236 74.3344 34.107 74.3144 34.4884 74.2747C35.5094 75.6449 36.8588 76.7663 38.4259 77.5471C39.993 78.3279 41.7332 78.7458 43.5038 78.7664C44.9167 78.7677 46.3157 78.5018 47.6188 77.9843C48.9218 78.5018 50.3208 78.7677 51.7337 78.7664C53.8823 78.7253 55.9752 78.1125 57.7734 76.9981C59.5717 75.8838 61.0026 74.3128 61.9028 72.4647C62.803 74.3128 64.234 75.8838 66.0322 76.9981C67.8305 78.1125 69.9234 78.7253 72.0719 78.7664C73.4849 78.7677 74.8839 78.5018 76.1869 77.9843C77.4965 78.5045 78.9029 78.7704 80.3229 78.7664C82.0943 78.748 83.8357 78.3321 85.4044 77.5527C86.9731 76.7733 88.3243 75.6528 89.3471 74.283C89.7285 74.3227 90.1119 74.3427 90.4955 74.3428C96.8547 74.3428 102.029 69.0025 102.029 62.4401C102.029 62.1777 102.02 61.9071 102.001 61.6347C103.23 60.4744 104.203 59.093 104.861 57.5716C105.518 56.0503 105.849 54.4197 105.832 52.7758C105.838 50.304 105.08 47.8845 103.65 45.8165V45.8165ZM51.7443 76.1893C50.5239 76.1891 49.32 75.9232 48.2254 75.4122C48.0395 75.3262 47.8353 75.2815 47.6284 75.2815C47.4215 75.2815 47.2173 75.3262 47.0314 75.4122C45.9342 75.9245 44.7271 76.1904 43.5038 76.1893C42.0606 76.1623 40.6479 75.7908 39.3965 75.1093C38.1452 74.4277 37.0956 73.4582 36.3451 72.2904C34.9284 68.8198 35.1721 65.8043 37.0587 63.5626C38.2643 62.2983 39.7934 61.3493 41.4986 60.8069C43.2038 60.2645 45.0277 60.147 46.7947 60.4657C46.9729 60.4946 47.1553 60.4896 47.3314 60.4509C47.5075 60.4123 47.6737 60.3408 47.8202 60.2406C47.9668 60.1405 48.0909 60.0137 48.1851 59.8676C48.2794 59.7215 48.342 59.5592 48.3692 59.3899C48.3965 59.2207 48.3879 59.048 48.3439 58.882C48.2999 58.716 48.2214 58.5599 48.113 58.4229C48.0046 58.2859 47.8685 58.1707 47.7126 58.0841C47.5567 57.9975 47.3841 57.9412 47.205 57.9185C46.0999 57.7601 44.9794 57.7205 43.865 57.8006C44.5949 56.5457 44.9009 55.1089 44.7416 53.6841C44.4643 51.9328 43.6364 50.3012 42.3657 49.0021C41.095 47.703 39.4406 46.7965 37.618 46.401C37.2692 46.3129 36.8978 46.3597 36.5855 46.5309C36.2731 46.7022 36.0454 46.984 35.9524 47.3143C35.8594 47.6446 35.9087 47.9964 36.0895 48.2922C36.2704 48.588 36.5679 48.8037 36.9167 48.8918C38.2058 49.1528 39.3826 49.7742 40.2948 50.6757C41.2069 51.5772 41.8123 52.7171 42.0328 53.9481C42.2695 56.1068 40.8651 58.0862 38.1755 59.3631C38.1257 59.3889 38.0777 59.4178 38.0318 59.4495C36.8356 60.0924 35.7775 60.9424 34.9127 61.9552C33.814 63.3366 33.0898 64.9521 32.8034 66.6601C32.517 68.3681 32.6771 70.1166 33.2698 71.7524C28.4307 71.7274 24.5034 67.5545 24.5034 62.4268C24.5043 62.0328 24.5289 61.6392 24.577 61.2478C24.6018 61.0402 24.573 60.83 24.4929 60.6354C24.4129 60.4407 24.2841 60.2673 24.1176 60.1303C23.0246 59.2053 22.154 58.0689 21.5648 56.7978C20.9756 55.5267 20.6814 54.1506 20.7022 52.7625C20.6874 50.5409 21.4569 48.3784 22.8886 46.6185C25.9095 43.2078 28.4272 42.1667 33.645 42.1667C34.0059 42.1667 34.3519 42.0309 34.6071 41.7892C34.8622 41.5476 35.0056 41.2198 35.0056 40.8781C35.0056 40.5363 34.8622 40.2086 34.6071 39.9669C34.3519 39.7253 34.0059 39.5895 33.645 39.5895C28.2834 39.5895 25.1258 40.6606 21.9961 43.7093C21.1435 42.2192 20.6992 40.5504 20.704 38.8556C20.6729 37.1488 21.1273 35.4655 22.0194 33.9822C22.9115 32.4989 24.2085 31.2703 25.7745 30.425C26.007 30.3084 26.1989 30.1304 26.3268 29.9126C26.4547 29.6948 26.5131 29.4465 26.4951 29.1979C26.4758 28.9389 26.467 28.7246 26.467 28.5221C26.4314 26.7514 26.9437 25.0095 27.9406 23.5112C28.9376 22.0129 30.3756 20.8236 32.0776 20.0899C32.288 22.6234 33.4216 25.009 35.2843 26.8383C37.5118 28.8711 40.4894 29.9996 43.5827 29.9833C43.9435 29.9833 44.2896 29.8476 44.5447 29.6059C44.7999 29.3643 44.9432 29.0365 44.9432 28.6948C44.9432 28.353 44.7999 28.0253 44.5447 27.7836C44.2896 27.5419 43.9435 27.4062 43.5827 27.4062C41.2158 27.4095 38.937 26.5559 37.213 25.02C36.3497 24.1261 35.6829 23.0785 35.2512 21.9382C34.8196 20.7979 34.6318 19.5876 34.6987 18.3779C34.6987 18.3613 34.6987 18.3447 34.6987 18.3281V18.245V18.1869C34.6987 14.6384 38.6524 11.7524 43.5108 11.7524C44.1352 11.7522 44.7586 11.8011 45.3745 11.8985C45.7253 11.9538 46.0851 11.8769 46.3767 11.6842C46.6684 11.4915 46.8688 11.1982 46.935 10.8673C47.2566 9.27737 48.1926 7.85813 49.56 6.88682C50.9275 5.91552 52.6281 5.46193 54.3298 5.61467C56.0314 5.76741 57.6118 6.5155 58.7623 7.7128C59.9127 8.9101 60.5505 10.4706 60.551 12.0894V33.7029C53.1171 38.8506 47.752 37.9854 45.769 37.3561C44.8212 37.1511 43.9815 36.633 43.4003 35.8948C43.3833 35.5606 43.2297 35.2458 42.972 35.0169C42.7143 34.7881 42.3727 34.6631 42.0194 34.6685C41.6662 34.6739 41.329 34.8092 41.0792 35.0458C40.8294 35.2824 40.6866 35.6018 40.681 35.9363C40.681 37.1784 41.7856 38.4388 43.6353 39.3056C45.051 39.9426 46.5862 40.3072 48.1518 40.3783C48.2468 40.398 48.3438 40.408 48.4411 40.4082C51.5374 40.4082 54.1515 44.586 54.1515 49.5311C54.1515 49.8729 54.2949 50.2006 54.55 50.4423C54.8052 50.6839 55.1512 50.8197 55.5121 50.8197C55.8729 50.8197 56.219 50.6839 56.4741 50.4423C56.7293 50.2006 56.8726 49.8729 56.8726 49.5311C57.0208 46.003 55.7337 42.5556 53.2766 39.9C55.862 39.2592 58.3193 38.2221 60.551 36.8297V56.967C57.6951 57.2132 55.0353 58.4479 53.0803 60.4349C51.1252 62.4219 50.0122 65.0217 49.9542 67.7372C49.9542 68.0789 50.0975 68.4067 50.3526 68.6483C50.6078 68.89 50.9539 69.0258 51.3147 69.0258C51.6755 69.0258 52.0216 68.89 52.2768 68.6483C52.5319 68.4067 52.6753 68.0789 52.6753 67.7372C52.7287 65.7046 53.5546 63.7585 55.0015 62.2565C56.4483 60.7544 58.4188 59.7972 60.551 59.5607V66.8671C60.5528 72.0047 56.5991 76.1893 51.7443 76.1893ZM99.6898 60.1353C99.5233 60.2723 99.3945 60.4457 99.3145 60.6403C99.2345 60.835 99.2056 61.0452 99.2304 61.2528C99.2785 61.6442 99.3031 62.0378 99.3041 62.4318C99.3041 67.5578 95.375 71.7308 90.5376 71.7573C91.1303 70.1215 91.2904 68.3731 91.004 66.6651C90.7176 64.957 89.9934 63.3416 88.8948 61.9602C88.0304 60.9475 86.973 60.0976 85.7774 59.4544C85.7309 59.4228 85.6823 59.394 85.6319 59.3681C82.9494 58.0912 81.5467 56.1184 81.7747 53.9531C81.9951 52.7221 82.6005 51.5821 83.5127 50.6807C84.4248 49.7792 85.6016 49.1578 86.8908 48.8968C87.2395 48.8087 87.537 48.593 87.7179 48.2972C87.8987 48.0013 87.9481 47.6496 87.8551 47.3193C87.7621 46.989 87.5343 46.7072 87.222 46.5359C86.9096 46.3647 86.5382 46.3179 86.1895 46.406C84.3669 46.8015 82.7124 47.7079 81.4417 49.0071C80.171 50.3062 79.3431 51.9378 79.0658 53.6891C78.9065 55.1139 79.2125 56.5506 79.9425 57.8055C78.828 57.7255 77.7075 57.765 76.6024 57.9234C76.4233 57.9462 76.2507 58.0025 76.0948 58.0891C75.9389 58.1757 75.8028 58.2909 75.6944 58.4279C75.586 58.5649 75.5075 58.7209 75.4635 58.887C75.4196 59.053 75.4109 59.2257 75.4382 59.3949C75.4654 59.5641 75.528 59.7265 75.6223 59.8726C75.7166 60.0186 75.8406 60.1455 75.9872 60.2456C76.1338 60.3458 76.3 60.4173 76.476 60.4559C76.6521 60.4945 76.8346 60.4996 77.0127 60.4707C78.7797 60.152 80.6037 60.2694 82.3089 60.8118C84.014 61.3542 85.5431 62.3033 86.7488 63.5676C88.6353 65.8093 88.8772 68.8248 87.4623 72.2953C86.7129 73.4597 85.6662 74.4266 84.4185 75.1071C83.1708 75.7876 81.7624 76.1598 80.3229 76.1893C79.1026 76.1892 77.8986 75.9233 76.8041 75.4122C76.6182 75.3262 76.414 75.2815 76.2071 75.2815C76.0002 75.2815 75.796 75.3262 75.6101 75.4122C74.5155 75.9232 73.3116 76.1891 72.0912 76.1893C67.2328 76.1893 63.2792 72.0048 63.2792 66.8637V59.5574C65.4114 59.7939 67.3819 60.7511 68.8287 62.2531C70.2756 63.7552 71.1016 65.7013 71.155 67.7339C71.155 68.0756 71.2983 68.4034 71.5535 68.645C71.8086 68.8867 72.1547 69.0224 72.5155 69.0224C72.8764 69.0224 73.2224 68.8867 73.4776 68.645C73.7327 68.4034 73.8761 68.0756 73.8761 67.7339C73.818 65.0184 72.705 62.4186 70.75 60.4316C68.7949 58.4445 66.1351 57.2099 63.2792 56.9637V36.8231C65.5095 38.2138 67.965 39.2498 70.5483 39.8901C68.0919 42.5459 66.8054 45.9933 66.9541 49.5212C66.9541 49.8629 67.0974 50.1907 67.3526 50.4323C67.6077 50.674 67.9538 50.8097 68.3146 50.8097C68.6755 50.8097 69.0215 50.674 69.2767 50.4323C69.5318 50.1907 69.6752 49.8629 69.6752 49.5212C69.6752 44.5761 72.2911 40.3982 75.3857 40.3982C75.4829 40.3981 75.5799 40.3881 75.675 40.3683C77.2405 40.297 78.7756 39.9324 80.1914 39.2956C82.0412 38.4288 83.1457 37.1685 83.1457 35.9264C83.1401 35.5918 82.9973 35.2725 82.7475 35.0359C82.4977 34.7992 82.1605 34.6639 81.8073 34.6585C81.454 34.6531 81.1124 34.7781 80.8547 35.007C80.597 35.2358 80.4434 35.5507 80.4264 35.8849C79.8452 36.623 79.0055 37.141 78.0577 37.3461C76.0694 37.9755 70.7114 38.8406 63.2757 33.693V12.0894C63.2762 10.4706 63.914 8.9101 65.0645 7.7128C66.2149 6.5155 67.7953 5.76741 69.4969 5.61467C71.1986 5.46193 72.8993 5.91552 74.2667 6.88682C75.6341 7.85813 76.5701 9.27737 76.8917 10.8673C76.9575 11.1984 77.1578 11.4919 77.4496 11.6847C77.7413 11.8775 78.1013 11.9543 78.4522 11.8985C79.0704 11.8007 79.6961 11.7518 80.3229 11.7524C85.1813 11.7524 89.135 14.6384 89.135 18.1869V18.255V18.338C89.135 18.3546 89.135 18.3712 89.135 18.3878C89.202 19.5976 89.0142 20.8078 88.5825 21.9482C88.1509 23.0885 87.484 24.1361 86.6208 25.03C84.8967 26.5658 82.618 27.4195 80.251 27.4161C79.8902 27.4161 79.5441 27.5519 79.289 27.7936C79.0338 28.0352 78.8905 28.363 78.8905 28.7047C78.8905 29.0465 79.0338 29.3742 79.289 29.6159C79.5441 29.8575 79.8902 29.9933 80.251 29.9933C83.3443 30.0096 86.3219 28.881 88.5494 26.8482C90.4121 25.019 91.5457 22.6334 91.7562 20.0998C93.4581 20.8335 94.8962 22.0228 95.8931 23.5212C96.89 25.0195 97.4023 26.7613 97.3667 28.532C97.3667 28.7346 97.3667 28.9488 97.3386 29.2079C97.3206 29.4565 97.3791 29.7048 97.507 29.9226C97.6349 30.1404 97.8267 30.3184 98.0592 30.435C99.6224 31.283 100.916 32.5135 101.805 33.9975C102.693 35.4816 103.144 37.1647 103.11 38.8705C103.115 40.5653 102.671 42.2342 101.818 43.7242C98.6869 40.6738 95.5292 39.6045 90.1694 39.6045C89.8086 39.6045 89.4625 39.7402 89.2074 39.9819C88.9522 40.2235 88.8089 40.5513 88.8089 40.893C88.8089 41.2348 88.9522 41.5625 89.2074 41.8042C89.4625 42.0458 89.8086 42.1816 90.1694 42.1816C95.3872 42.1816 97.9032 43.2228 100.926 46.6335C102.358 48.3933 103.127 50.5559 103.112 52.7775C103.13 54.1646 102.834 55.5393 102.243 56.8086C101.652 58.0779 100.78 59.2123 99.6863 60.1353H99.6898Z" fill="#BAD036"/>
<path d="M77.173 13.0059C76.8122 13.0059 76.4661 13.1416 76.2109 13.3833C75.9558 13.6249 75.8124 13.9527 75.8124 14.2944C75.8124 17.8862 72.1165 20.8087 67.572 20.8087C67.2111 20.8087 66.8651 20.9445 66.6099 21.1861C66.3548 21.4278 66.2114 21.7555 66.2114 22.0973C66.2114 22.439 66.3548 22.7668 66.6099 23.0084C66.8651 23.2501 67.2111 23.3859 67.572 23.3859C73.6156 23.3859 78.5318 19.3076 78.5318 14.2944C78.5318 13.953 78.3887 13.6255 78.1339 13.3839C77.8791 13.1423 77.5335 13.0063 77.173 13.0059V13.0059Z" fill="#BAD036"/>
<path d="M99 12C99 11.5294 100.12 8.27451 100.68 6.70588L107.96 8.47059L113 2" stroke="#708CB1" stroke-width="2.5" stroke-linecap="round" stroke-linejoin="round"/>
<path d="M21 15C21 14.5294 19.88 11.2745 19.32 9.70588L12.04 11.4706L7 5" stroke="#708CB1" stroke-width="2.5" stroke-linecap="round" stroke-linejoin="round"/>
<path d="M1.99997 74.9024L11.4995 72.5036L9.58027 65.9765L17.6003 64.2594" stroke="#708CB1" stroke-width="2.5" stroke-linecap="round" stroke-linejoin="round"/>
<path d="M121.601 74.9024L112.101 72.5036L114.02 65.9765L106 64.2594" stroke="#708CB1" stroke-width="2.5" stroke-linecap="round" stroke-linejoin="round"/>
</svg>
