<svg width="14" height="18" viewBox="0 0 14 18" fill="none" xmlns="http://www.w3.org/2000/svg">
<path d="M7.23442 0C2.5108 0.000710337 0 2.99478 0 6.25949C0 7.77322 0.855121 9.66201 2.22432 10.2608C2.6149 10.4349 2.56321 10.2225 2.89923 8.95096C2.92579 8.84512 2.91215 8.75349 2.82599 8.65475C0.868762 6.41506 2.44402 1.81065 6.95513 1.81065C13.4838 1.81065 12.2639 10.7481 8.09098 10.7481C7.01544 10.7481 6.21416 9.91276 6.46761 8.87922C6.77491 7.6482 7.37658 6.32484 7.37658 5.43763C7.37658 3.20149 4.00923 3.53322 4.00923 6.49603C4.00923 7.41166 4.33663 8.02965 4.33663 8.02965C4.33663 8.02965 3.25319 12.3599 3.05216 13.1689C2.71183 14.5385 3.09811 16.7554 3.13185 16.9465C3.15267 17.0516 3.27186 17.085 3.33863 16.9984C3.44561 16.8599 4.75522 15.0116 5.12211 13.6754C5.25565 13.1888 5.80348 11.2141 5.80348 11.2141C6.16462 11.8591 7.2057 12.3989 8.31499 12.3989C11.6149 12.3989 14 9.52917 14 5.96825C13.9885 2.55437 11.0354 0 7.23442 0V0Z" fill="white"/>
</svg>
