<svg width="108" height="108" viewBox="0 0 108 108" fill="none" xmlns="http://www.w3.org/2000/svg">
<g filter="url(#filter0_d_1_304)">
<path d="M100.889 53L104 46.9739L99.5369 41.8547L101.102 35.2649L95.5277 31.3636L95.4504 24.5935L89.0978 22.1306L87.3966 15.5741L80.6363 14.6836L77.4095 8.71875L70.631 9.46099L66.0543 4.44181L59.6553 6.78319L54 3L48.3447 6.78319L41.9454 4.44181L37.3686 9.46099L30.5903 8.71897L27.3634 14.6838L20.603 15.5744L18.902 22.131L12.5494 24.594L12.4721 31.364L6.89843 35.2651L8.46312 41.855L4 46.9739L7.11116 53L4.00022 59.0261L8.46312 64.1453L6.89843 70.7351L12.4723 74.6364L12.5496 81.4065L18.9022 83.8694L20.6034 90.4259L27.3637 91.3164L30.5905 97.2812L37.369 96.539L41.9457 101.558L48.3447 99.2168L54 103L59.6553 99.2168L66.0546 101.558L70.6314 96.539L77.4097 97.281L80.6365 91.3162L87.397 90.4257L89.098 83.869L95.4506 81.406L95.5279 74.636L101.102 70.7349L99.5369 64.145L104 59.0261L100.889 53Z" fill="#59759A"/>
<circle cx="53.5689" cy="52.569" r="44.3966" fill="#82A4D0"/>
<circle cx="53.5689" cy="52.569" r="42.6724" fill="#708CB1"/>
<path fill-rule="evenodd" clip-rule="evenodd" d="M55.9686 45.0413C55.9686 47.9384 53.8498 50.014 50.9383 50.014C48.0412 50.014 45.9224 47.9384 45.9224 45.0413C45.9224 42.1442 48.0412 40.0686 50.9383 40.0686C53.8498 40.0686 55.9686 42.1442 55.9686 45.0413ZM48.0268 45.0413C48.0268 46.8286 49.1654 48.1978 50.9383 48.1978C52.7112 48.1978 53.8643 46.8286 53.8643 45.0413C53.8643 43.2396 52.7112 41.8847 50.9383 41.8847C49.1654 41.8847 48.0268 43.2396 48.0268 45.0413ZM44.4743 40.2272V49.841H42.4131V43.1099L39.7034 49.841H38.8098L36.1 43.1099V49.841H34.0533V40.2272H36.9216L39.2566 46.0358L41.5916 40.2272H44.4743ZM60.8209 50.014C63.4154 50.014 64.6694 48.6879 64.6694 46.9295C64.6694 44.7576 62.6477 44.2748 61.0512 43.8935C60.0096 43.6448 59.149 43.4393 59.149 42.836C59.149 42.2595 59.639 41.8703 60.5182 41.8703C61.4984 41.8703 62.5361 42.2018 63.3145 42.9225L64.4532 41.4235C63.5019 40.5443 62.2335 40.083 60.7056 40.083C58.4427 40.083 57.059 41.4091 57.059 43.009C57.059 45.1552 59.0069 45.6173 60.5915 45.9932C61.6781 46.251 62.5938 46.4683 62.5938 47.1601C62.5938 47.7078 62.0461 48.2267 60.9218 48.2267C59.5958 48.2267 58.5436 47.6357 57.8662 46.9295L56.7563 48.4861C57.65 49.3942 58.976 50.014 60.8209 50.014ZM70.1453 42.0288V49.841H68.0841V42.0288H65.2735V40.2272H72.9415V42.0288H70.1453ZM34.7903 65.3511C37.7018 65.3511 39.8206 63.2755 39.8206 60.3784C39.8206 57.4813 37.7018 55.4057 34.7903 55.4057C31.8932 55.4057 29.7744 57.4813 29.7744 60.3784C29.7744 63.2755 31.8932 65.3511 34.7903 65.3511ZM34.7903 63.535C33.0174 63.535 31.8787 62.1657 31.8787 60.3784C31.8787 58.5767 33.0174 57.2218 34.7903 57.2218C36.5631 57.2218 37.7162 58.5767 37.7162 60.3784C37.7162 62.1657 36.5631 63.535 34.7903 63.535ZM23.2879 65.1781V61.7621H25.7382C27.8138 61.7621 28.9669 60.3352 28.9669 58.6632C28.9669 56.9768 27.8282 55.5643 25.7382 55.5643H21.2412V65.1781H23.2879ZM25.4644 59.9604H23.2879V57.366H25.4644C26.2715 57.366 26.8769 57.856 26.8769 58.6632C26.8769 59.4559 26.2715 59.9604 25.4644 59.9604ZM43.3036 61.7621V65.1781H41.2569V55.5643H45.7539C47.8439 55.5643 48.9826 56.9768 48.9826 58.6632C48.9826 60.3352 47.8295 61.7621 45.7539 61.7621H43.3036ZM43.3036 59.9604H45.4801C46.2872 59.9604 46.8926 59.4559 46.8926 58.6632C46.8926 57.856 46.2872 57.366 45.4801 57.366H43.3036V59.9604ZM54.5898 65.3511C57.5157 65.3511 58.9282 63.7223 58.9282 61.3297V55.5643H56.8383V61.272C56.8383 62.6125 56.0744 63.535 54.5898 63.535C53.1052 63.535 52.3268 62.6125 52.3268 61.272V55.5643H50.2513V61.3441C50.2513 63.7079 51.6638 65.3511 54.5898 65.3511ZM66.9335 63.3764V65.1781H60.8222V55.5643H62.8689V63.3764H66.9335ZM77.332 65.1781L73.6277 55.5643H71.0621L67.3434 65.1781H69.6784L70.2837 63.5494H74.406L74.997 65.1781H77.332ZM73.8439 61.7477H70.8459L72.3449 57.611L73.8439 61.7477ZM83.841 61.5171L86.0031 65.1781H83.6537L81.7655 61.7621H80.2665V65.1781H78.2198V55.5643H82.7168C84.7203 55.5643 85.9454 56.8759 85.9454 58.6632C85.9454 60.364 84.8788 61.272 83.841 61.5171ZM80.2665 59.9604H82.4141C83.2357 59.9604 83.8554 59.4704 83.8554 58.6632C83.8554 57.856 83.2357 57.366 82.4141 57.366H80.2665V59.9604Z" fill="white"/>
<path d="M53.1113 21.9655L54.4773 24.3928L57.2043 24.9439L55.3215 26.9951L55.6409 29.763L53.1113 28.6034L50.5817 29.763L50.9011 26.9951L49.0183 24.9439L51.7453 24.3928L53.1113 21.9655Z" fill="white"/>
<path d="M67.867 25.66L68.6475 27.047L70.2058 27.3619L69.13 28.534L69.3125 30.1157L67.867 29.4531L66.4215 30.1157L66.604 28.534L65.5281 27.3619L67.0864 27.047L67.867 25.66Z" fill="white"/>
<path d="M38.3557 25.66L39.1363 27.047L40.6946 27.3619L39.6187 28.534L39.8012 30.1157L38.3557 29.4531L36.9102 30.1157L37.0927 28.534L36.0168 27.3619L37.5752 27.047L38.3557 25.66Z" fill="white"/>
<path d="M53.1379 83.1721L51.7698 80.7448L49.0385 80.1937L50.9242 78.1424L50.6043 75.3746L53.1379 76.5341L55.6715 75.3746L55.3516 78.1424L57.2373 80.1937L54.506 80.7448L53.1379 83.1721Z" fill="white"/>
<path d="M38.3597 79.4774L37.5779 78.0904L36.0172 77.7755L37.0947 76.6034L36.912 75.0217L38.3597 75.6843L39.8074 75.0217L39.6247 76.6034L40.7022 77.7755L39.1415 78.0904L38.3597 79.4774Z" fill="white"/>
<path d="M67.9163 79.4774L67.1346 78.0904L65.5738 77.7755L66.6514 76.6034L66.4686 75.0217L67.9163 75.6843L69.3641 75.0217L69.1813 76.6034L70.2588 77.7755L68.6981 78.0904L67.9163 79.4774Z" fill="white"/>
</g>
<defs>
<filter id="filter0_d_1_304" x="0" y="0" width="108" height="108" filterUnits="userSpaceOnUse" color-interpolation-filters="sRGB">
<feFlood flood-opacity="0" result="BackgroundImageFix"/>
<feColorMatrix in="SourceAlpha" type="matrix" values="0 0 0 0 0 0 0 0 0 0 0 0 0 0 0 0 0 0 127 0" result="hardAlpha"/>
<feOffset dy="1"/>
<feGaussianBlur stdDeviation="2"/>
<feColorMatrix type="matrix" values="0 0 0 0 0 0 0 0 0 0 0 0 0 0 0 0 0 0 0.25 0"/>
<feBlend mode="normal" in2="BackgroundImageFix" result="effect1_dropShadow_1_304"/>
<feBlend mode="normal" in="SourceGraphic" in2="effect1_dropShadow_1_304" result="shape"/>
</filter>
</defs>
</svg>
