<svg width="101" height="80" viewBox="0 0 101 80" fill="none" xmlns="http://www.w3.org/2000/svg">
<g clip-path="url(#clip0_69_23)">
<path d="M93.2389 8.69418L92.2969 7.75526C89.8317 5.29784 86.905 3.34849 83.6839 2.01854C80.4628 0.688584 77.0105 0.00406358 73.524 0.00406358C70.0375 0.00406358 66.5852 0.688584 63.3642 2.01854C60.1431 3.34849 57.2164 5.29784 54.7512 7.75526L52.1586 10.3481L50.5097 11.971L46.2423 7.74664C41.2639 2.78629 34.5129 -0.000244141 27.4738 -0.000244141C20.4346 -0.000244141 13.6836 2.78629 8.70521 7.74664L7.76323 8.68557C2.79219 13.6525 0.000488281 20.3819 0.000488281 27.3978C0.000488281 34.4136 2.79219 41.1431 7.76323 46.11L12.2691 50.5893C12.4701 52.3031 13.2961 53.8836 14.5899 55.03C15.8838 56.1764 17.5552 56.8088 19.2864 56.8069C19.4834 56.8069 19.6787 56.8069 19.874 56.7827C19.7927 57.7542 19.9146 58.732 20.2318 59.6541C20.5491 60.5763 21.0548 61.4228 21.7171 62.1401C22.3794 62.8574 23.1838 63.4299 24.0795 63.8215C24.9752 64.213 25.9426 64.415 26.9207 64.4147C27.1177 64.4147 27.313 64.4148 27.5083 64.3906C27.427 65.3623 27.5489 66.3403 27.8662 67.2627C28.1836 68.185 28.6895 69.0317 29.3519 69.7492C30.0144 70.4667 30.819 71.0393 31.7149 71.431C32.6108 71.8226 33.5784 72.0246 34.5567 72.0244C34.752 72.0244 34.9473 72.0244 35.1391 72.0002C35.1236 72.1932 35.115 72.3862 35.115 72.5808C35.1147 73.9757 35.5296 75.3394 36.307 76.4992C37.0844 77.6591 38.1895 78.563 39.4824 79.0967C40.7754 79.6305 42.1981 79.77 43.5706 79.4976C44.943 79.2252 46.2037 78.5532 47.1929 77.5666L48.4356 76.3279C48.6027 76.1614 48.7606 75.9891 48.9092 75.8111L51.1665 78.0611C52.1202 79.015 53.3426 79.6571 54.6712 79.9019C55.9998 80.1467 57.3717 79.9827 58.6046 79.4316C59.8374 78.8806 60.8728 77.9686 61.5732 76.8169C62.2735 75.6652 62.6057 74.3283 62.5254 72.984C63.573 73.3928 64.7075 73.5302 65.8229 73.3833C66.9382 73.2364 67.998 72.8101 68.9031 72.1441C69.8083 71.4782 70.5292 70.5943 70.9987 69.5752C71.4681 68.5561 71.6706 67.435 71.5874 66.3167C72.6626 66.7081 73.821 66.8163 74.9504 66.6307C76.0799 66.4452 77.1422 65.9722 78.0345 65.2575C78.9269 64.5429 79.6191 63.6108 80.0442 62.5513C80.4692 61.4919 80.6128 60.3411 80.4609 59.2102C81.0304 59.3652 81.618 59.4446 82.2083 59.4462C83.2572 59.4469 84.2914 59.2006 85.2268 58.7274C86.1621 58.2542 86.972 57.5675 87.5907 56.7231C88.2093 55.8788 88.6191 54.9008 88.7866 53.8687C88.9542 52.8366 88.8748 51.7797 88.5549 50.7839L89.089 50.2533L93.2371 46.1186C98.2088 41.1521 101.001 34.4227 101.001 27.4067C101.002 20.3908 98.2101 13.6611 93.2389 8.69418ZM19.2864 54.5052C18.3457 54.5041 17.4264 54.2254 16.6445 53.7041C15.8626 53.1828 15.2532 52.4424 14.893 51.5762C14.5328 50.71 14.4381 49.7569 14.6208 48.8371C14.8035 47.9173 15.2554 47.0721 15.9195 46.408L17.1639 45.1693C18.0578 44.2783 19.2702 43.7778 20.5343 43.7778C21.7984 43.7778 23.0108 44.2783 23.9046 45.1693C24.7985 46.0603 25.3007 47.2688 25.3007 48.5288C25.3007 49.7888 24.7985 50.9973 23.9046 51.8883L22.6602 53.1287C22.2165 53.5683 21.69 53.9162 21.1111 54.1524C20.5321 54.3887 19.912 54.5085 19.2864 54.5052ZM26.9207 62.1148C25.98 62.1137 25.0607 61.835 24.2788 61.3137C23.4969 60.7924 22.8874 60.052 22.5273 59.1858C22.1671 58.3196 22.0724 57.3665 22.2551 56.4467C22.4378 55.5269 22.8897 54.6817 23.5538 54.0176L24.7982 52.779C25.6921 51.888 26.9044 51.3874 28.1686 51.3874C29.4327 51.3874 30.645 51.888 31.5389 52.779C32.4328 53.6699 32.935 54.8784 32.935 56.1384C32.935 57.3985 32.4328 58.6069 31.5389 59.4979L30.2945 60.7366C29.8511 61.1767 29.3247 61.5251 28.7457 61.7616C28.1667 61.9982 27.5464 62.1182 26.9207 62.1148ZM34.555 69.7244C33.9295 69.7251 33.3101 69.6027 32.7323 69.3641C32.1546 69.1255 31.6297 68.7755 31.1881 68.3341C30.7449 67.8933 30.3933 67.3696 30.1534 66.7932C29.9135 66.2167 29.7901 65.5987 29.7901 64.9747C29.7901 64.3506 29.9135 63.7326 30.1534 63.1562C30.3933 62.5797 30.7449 62.0561 31.1881 61.6152L32.4325 60.3765C33.3264 59.4855 34.5387 58.985 35.8028 58.985C37.067 58.985 38.2793 59.4855 39.1732 60.3765C40.0671 61.2675 40.5692 62.4759 40.5692 63.736C40.5692 64.996 40.0671 66.2044 39.1732 67.0954L37.9288 68.3358C37.4861 68.7777 36.9601 69.1279 36.3811 69.3662C35.802 69.6045 35.1814 69.7263 34.555 69.7244ZM46.8006 74.705L45.5561 75.9437C45.1135 76.3849 44.5881 76.7349 44.0098 76.9736C43.4315 77.2124 42.8117 77.3353 42.1858 77.3353C41.5598 77.3353 40.94 77.2124 40.3618 76.9736C39.7835 76.7349 39.258 76.3849 38.8154 75.9437C38.3728 75.5026 38.0217 74.9788 37.7822 74.4024C37.5427 73.826 37.4194 73.2082 37.4194 72.5843C37.4194 71.9604 37.5427 71.3426 37.7822 70.7661C38.0217 70.1897 38.3728 69.666 38.8154 69.2248L40.0599 67.9861C40.5025 67.545 41.0279 67.195 41.6062 66.9562C42.1845 66.7175 42.8043 66.5946 43.4302 66.5946C44.0562 66.5946 44.676 66.7175 45.2542 66.9562C45.8325 67.195 46.358 67.545 46.8006 67.9861C47.2432 68.4273 47.5943 68.951 47.8338 69.5275C48.0733 70.1039 48.1966 70.7217 48.1966 71.3456C48.1966 71.9695 48.0733 72.5873 47.8338 73.1637C47.5943 73.7401 47.2432 74.2639 46.8006 74.705ZM85.2918 55.8679C84.4751 56.6812 83.3679 57.138 82.2135 57.138C81.0591 57.138 79.9519 56.6812 79.1352 55.8679L61.5627 38.3281L59.8862 39.9992L76.9436 57.0033C77.7603 57.817 78.2191 58.9208 78.2193 60.0718C78.2195 61.2228 77.7609 62.3267 76.9445 63.1407C76.1281 63.9547 75.0207 64.4121 73.866 64.4123C72.7113 64.4124 71.6038 63.9554 70.7871 63.1416L53.7297 46.1376L52.0583 47.8035L68.0303 63.7239C68.8265 64.5418 69.268 65.6391 69.2594 66.7787C69.2508 67.9183 68.7928 69.0088 67.9843 69.8147C67.1759 70.6205 66.0818 71.077 64.9385 71.0856C63.7952 71.0942 62.6944 70.6542 61.8738 69.8605L45.9018 53.9401L44.2305 55.6061L58.9701 70.2912C59.3844 70.6919 59.7146 71.1707 59.9416 71.6998C60.1685 72.2289 60.2876 72.7977 60.2919 73.3731C60.2963 73.9485 60.1858 74.519 59.9669 75.0514C59.748 75.5838 59.425 76.0675 59.0169 76.4744C58.6087 76.8813 58.1234 77.2032 57.5892 77.4214C57.0551 77.6396 56.4827 77.7497 55.9055 77.7454C55.3282 77.741 54.7576 77.6223 54.2268 77.3961C53.696 77.1699 53.2156 76.8408 52.8136 76.4278L50.0914 73.7196C50.474 72.6558 50.5942 71.5158 50.4419 70.3959C50.2897 69.2761 49.8694 68.2091 49.2167 67.2851C48.5639 66.3611 47.6977 65.6072 46.6912 65.087C45.6847 64.5667 44.5674 64.2954 43.4337 64.2959C43.2384 64.2959 43.0431 64.2959 42.8495 64.32C42.865 64.127 42.8737 63.9324 42.8737 63.7377C42.8737 61.8675 42.1284 60.074 40.8017 58.7516C39.475 57.4292 37.6756 56.6863 35.7994 56.6863C35.6024 56.6863 35.407 56.6863 35.2117 56.7104C35.293 55.7389 35.1712 54.7612 34.854 53.839C34.5367 52.9169 34.031 52.0703 33.3687 51.353C32.7064 50.6357 31.9019 50.0632 31.0063 49.6716C30.1106 49.2801 29.1431 49.0781 28.1651 49.0784C27.9681 49.0784 27.7728 49.0784 27.5775 49.1025C27.6975 47.6632 27.3712 46.2218 26.6426 44.9734C25.914 43.725 24.8184 42.7298 23.5038 42.1224C22.1892 41.5149 20.7192 41.3246 19.2925 41.5772C17.8659 41.8297 16.5515 42.5129 15.5271 43.5344L14.2827 44.7731C13.4856 45.5696 12.8927 46.5459 12.5543 47.6192L9.40002 44.4837C4.85547 39.9531 2.30243 33.8088 2.30243 27.4021C2.30243 20.9954 4.85547 14.8511 9.40002 10.3205L10.342 9.38158C14.887 4.8513 21.0513 2.30621 27.4789 2.30621C33.9065 2.30621 40.0709 4.8513 44.6159 9.38158L48.8556 13.5887C45.9612 16.4396 43.1568 19.3912 40.2517 22.2268L40.0789 22.8074C40.0789 22.8074 36.3317 36.4485 36.1191 37.2152C35.9466 37.7532 35.9019 38.3239 35.9886 38.8821C36.0753 39.4403 36.291 39.9708 36.6186 40.4316C36.9697 40.8731 37.4106 41.2356 37.9122 41.4951C38.4139 41.7546 38.965 41.9053 39.5293 41.9374C39.8576 41.9684 40.1912 41.9839 40.5231 41.9839C42.9663 41.9857 45.3467 41.2121 47.3194 39.7752C49.292 38.3383 50.7545 36.3127 51.4949 33.9918L52.4507 30.4721L59.143 23.7997L84.5952 49.0353L85.2866 49.7244C85.6919 50.1273 86.0136 50.6059 86.2333 51.1328C86.4529 51.6596 86.5663 52.2245 86.5667 52.7951C86.5672 53.3657 86.4549 53.9308 86.2361 54.458C86.0173 54.9853 85.6964 55.4644 85.2918 55.8679ZM91.6021 44.4974L87.454 48.6322C87.225 48.3069 86.9688 48.0014 86.6883 47.7191L59.143 20.5367L50.3783 29.273L49.2618 33.3854C48.659 35.2196 47.4885 36.8163 45.9184 37.9461C44.3484 39.0759 42.4595 39.6807 40.5231 39.6736C40.2517 39.6736 39.9786 39.6598 39.7073 39.634C39.7073 39.634 37.8683 39.5702 38.3505 37.8216C38.5614 37.0532 42.3102 23.4121 42.3102 23.4121L42.331 23.3914C42.3776 23.2191 53.4428 12.3121 53.7884 11.9727L56.381 9.37986C60.926 4.84957 67.0904 2.30449 73.518 2.30449C79.9456 2.30449 86.1099 4.84957 90.6549 9.37986L91.5969 10.3188C93.8479 12.5617 95.6337 15.2246 96.8522 18.1554C98.0708 21.0862 98.6982 24.2276 98.6987 27.4002C98.6991 30.5727 98.0727 33.7143 96.855 36.6455C95.6374 39.5767 93.8524 42.2401 91.6021 44.4837V44.4974Z" fill="#BAD036"/>
</g>
<defs>
<clipPath id="clip0_69_23">
<rect width="101" height="80" fill="white"/>
</clipPath>
</defs>
</svg>
