<svg width="73" height="76" viewBox="0 0 73 76" fill="none" xmlns="http://www.w3.org/2000/svg">
<path d="M24.9189 50.456C24.5499 52.4625 26.3138 54.6588 28.1811 56.9847C28.7251 57.6625 29.234 58.2967 29.6794 58.9128C31.5212 61.4647 35.4737 66.5698 36.6778 67.8006C38.3418 69.5899 40.233 71.1777 42.3083 72.5276C45.3646 74.6457 49.0569 75.7808 52.844 75.7663C55.4119 75.7496 57.9546 75.2855 60.345 74.397C64.3953 72.9763 67.8053 70.2776 70.0012 66.7551C72.519 62.5071 72.6765 57.3673 70.4593 51.8931C70.4481 51.8644 70.4354 51.8373 70.4227 51.8117C70.3909 51.7259 70.3686 51.6686 70.3448 51.6084C70.1968 51.2589 66.696 42.9692 64.7938 39.5572C64.6217 39.2271 64.4234 38.9098 64.2005 38.6082L64.0987 38.4576C63.4609 37.6474 62.5597 37.0581 61.5337 36.7805C60.5078 36.5028 59.4139 36.5522 58.4205 36.921C57.8681 37.112 57.3583 37.3992 56.9174 37.7676L56.7361 37.9183L56.5532 37.7676C55.8194 37.1484 54.9194 36.733 53.9523 36.5671C52.9853 36.4012 51.9886 36.4914 51.0722 36.8276C50.1978 37.1473 49.4292 37.6818 48.8454 38.3762L48.6864 38.5645L48.4764 38.4274C47.4047 37.7459 46.1152 37.4406 44.8309 37.5641C43.5466 37.6876 42.3483 38.2322 41.443 39.1038L41.144 39.3915L37.0754 29.3439C36.6314 28.0112 35.6504 26.898 34.3453 26.246C33.0401 25.594 31.5162 25.4557 30.1041 25.8611C29.4348 26.1121 28.8327 26.5006 28.3412 26.9987C27.8496 27.4968 27.481 28.092 27.2618 28.7413C26.7882 30.0883 26.831 31.5503 27.3827 32.8704L34.2045 49.7148L33.4872 49.2629C32.1482 48.351 30.5559 47.8319 28.908 47.7701C28.0262 47.7532 27.1583 47.9804 26.4108 48.4238C26.0244 48.6432 25.6916 48.9378 25.4344 49.2881C25.1772 49.6384 25.0015 50.0365 24.9189 50.456ZM27.3938 50.8642C27.4161 50.7437 27.4781 50.5946 27.7739 50.4123C28.1225 50.2129 28.5249 50.1139 28.9318 50.1276C29.9224 50.2353 30.8804 50.5288 31.7499 50.991C32.6195 51.4532 33.383 52.0748 33.9961 52.8195C34.653 53.5079 35.5867 54.5413 36.7732 55.8925C36.9636 56.1093 37.2291 56.255 37.5223 56.3037C37.8156 56.3524 38.1175 56.3009 38.3744 56.1583C38.6313 56.0158 38.8264 55.7915 38.9249 55.5254C39.0235 55.2593 39.0191 54.9688 38.9125 54.7055L29.7239 32.0177C29.3838 31.2215 29.3506 30.3373 29.6301 29.5201C29.7336 29.2008 29.9103 28.9071 30.1475 28.6599C30.3848 28.4128 30.6769 28.2184 31.0027 28.0906C31.3599 27.9758 31.7402 27.9407 32.114 27.988C32.4878 28.0353 32.8451 28.1637 33.1579 28.3632C33.8798 28.798 34.4317 29.4444 34.7294 30.204L39.9781 43.159C40.0837 43.418 40.2815 43.6339 40.5374 43.7693C40.7933 43.9047 41.0911 43.9512 41.3794 43.9006C41.6676 43.85 41.928 43.7056 42.1157 43.4923C42.3033 43.279 42.4064 43.0103 42.4069 42.7327C42.4102 42.1166 42.6261 41.5183 43.0215 41.0291C43.417 40.5399 43.9705 40.1865 44.5976 40.0228C45.2248 39.859 45.8913 39.8939 46.4956 40.122C47.0999 40.3501 47.6089 40.7591 47.9452 41.2866C48.074 41.4828 48.2603 41.6393 48.4814 41.737C48.7026 41.8346 48.9489 41.8692 49.1904 41.8364C49.432 41.8037 49.6582 41.7051 49.8415 41.5526C50.0249 41.4001 50.1573 41.2004 50.2228 40.9778C50.3306 40.5481 50.5457 40.1492 50.8502 39.8147C51.1547 39.4801 51.5395 39.2198 51.9724 39.0556C52.3188 38.9242 52.6892 38.8589 53.0624 38.8636C53.4355 38.8682 53.804 38.9427 54.1466 39.0827C54.4892 39.2227 54.7993 39.4254 55.0589 39.6793C55.3185 39.9332 55.5225 40.2332 55.6593 40.562C55.7628 40.7776 55.932 40.9591 56.1451 41.0832C56.3582 41.2072 56.6055 41.2683 56.8555 41.2584C57.1054 41.2485 57.3465 41.1682 57.548 41.0278C57.7494 40.8874 57.902 40.6932 57.9863 40.4701C58.0787 40.1676 58.2468 39.8906 58.4763 39.6627C58.7059 39.4348 58.9901 39.2627 59.3048 39.161C59.7672 38.9857 60.2757 38.9506 60.7601 39.0607C61.2444 39.1708 61.6807 39.4206 62.0087 39.7757L62.1137 39.9263C62.2672 40.131 62.4049 40.346 62.5257 40.5695C62.5368 40.5936 62.5495 40.6162 62.5622 40.6403C64.4009 43.9227 67.9701 52.3902 68.013 52.4775C68.0321 52.5242 68.048 52.5709 68.0623 52.6161L67.8206 52.7547L68.0814 52.6779C68.1059 52.7515 68.1378 52.8226 68.1768 52.8903C70.0855 57.7107 69.9614 61.9738 67.8174 65.5907C65.9073 68.628 62.9547 70.9528 59.4527 72.1766C57.3337 72.9673 55.0801 73.3849 52.8027 73.4088C49.547 73.4132 46.3764 72.4244 43.7605 70.5889L43.6937 70.5467C41.7908 69.3003 40.0559 67.8383 38.5276 66.1932C37.5112 65.1538 33.6828 60.2445 31.7551 57.5737C31.2779 56.9093 30.7228 56.2179 30.1884 55.5551C28.6169 53.5968 27.2284 51.7726 27.3954 50.8642H27.3938Z" fill="#BAD036"/>
<path d="M42.7173 29.859C42.8224 29.7385 42.9012 29.5996 42.9493 29.4501C42.9973 29.3007 43.0136 29.1437 42.9972 28.9883C42.8228 27.3233 42.2393 25.7201 41.2934 24.3071C40.3475 22.894 39.0655 21.7102 37.55 20.8505C36.0344 19.9908 34.3274 19.479 32.5656 19.3561C30.8038 19.2332 29.0361 19.5026 27.4039 20.1428C25.7717 20.7829 24.3204 21.776 23.1661 23.0426C22.0118 24.3092 21.1866 25.8141 20.7566 27.4369C20.3265 29.0597 20.3034 30.7553 20.6893 32.388C21.0752 34.0208 21.8592 35.5453 22.9787 36.8396C23.1951 37.0764 23.4991 37.2256 23.8282 37.2564C24.1572 37.2872 24.4862 37.1973 24.7474 37.0053C25.0048 36.8049 25.1678 36.516 25.2006 36.202C25.2334 35.888 25.1334 35.5744 24.9224 35.3302C24.0507 34.3232 23.4401 33.137 23.1394 31.8665C22.8387 30.5959 22.8562 29.2763 23.1906 28.0133C23.525 26.7504 24.167 25.5791 25.0651 24.5932C25.9632 23.6074 27.0926 22.8344 28.3627 22.3361C29.6329 21.8378 31.0086 21.6281 32.3797 21.7237C33.7508 21.8193 35.0792 22.2176 36.2586 22.8867C37.438 23.5559 38.4356 24.4772 39.1716 25.577C39.9076 26.6768 40.3615 27.9245 40.4969 29.2203C40.5202 29.4556 40.617 29.6791 40.775 29.8622C40.9329 30.0452 41.1449 30.1796 41.3837 30.2481C41.6226 30.3166 41.8777 30.3162 42.1163 30.2469C42.355 30.1776 42.5664 30.0425 42.7237 29.859H42.7173Z" fill="#708CB1"/>
<path d="M50.3533 30.0489C50.3533 30.3645 50.4857 30.6672 50.7214 30.8904C50.957 31.1135 51.2766 31.2389 51.6099 31.2389C51.9431 31.2389 52.2627 31.1135 52.4984 30.8904C52.734 30.6672 52.8664 30.3645 52.8664 30.0489C52.8662 26.595 51.9222 23.2 50.1263 20.1939C48.3304 17.1879 45.7436 14.6732 42.6176 12.8945C39.4917 11.1157 35.9328 10.1333 32.2873 10.043C28.6417 9.95263 25.0335 10.7573 21.8136 12.3788C18.5936 14.0004 15.8716 16.3835 13.9121 19.2964C11.9526 22.2094 10.8225 25.553 10.6315 29.0021C10.4406 32.4513 11.1954 35.8885 12.8224 38.9796C14.4495 42.0706 16.8935 44.7103 19.9168 46.6418C20.1957 46.8123 20.5333 46.8742 20.8592 46.8147C21.1852 46.7552 21.4743 46.5789 21.6663 46.3224C21.7595 46.1928 21.8247 46.047 21.8582 45.8934C21.8917 45.7398 21.8928 45.5815 21.8615 45.4275C21.8302 45.2735 21.767 45.1269 21.6756 44.9961C21.5843 44.8653 21.4665 44.7529 21.3292 44.6654C18.6633 42.9645 16.5078 40.6389 15.0723 37.9151C13.6369 35.1912 12.9704 32.1618 13.1377 29.1216C13.305 26.0815 14.3004 23.1341 16.027 20.5663C17.7537 17.9985 20.1528 15.8978 22.9908 14.4685C25.8289 13.0393 29.0093 12.3302 32.2226 12.4103C35.4358 12.4903 38.5724 13.3568 41.3273 14.9254C44.0821 16.494 46.3612 18.7113 47.9429 21.3615C49.5246 24.0117 50.3551 27.0046 50.3533 30.0489V30.0489Z" fill="#708CB1"/>
<path d="M63.4658 30.0489C63.465 24.5349 61.8625 19.1274 58.8338 14.4183C55.805 9.70919 51.4668 5.87999 46.2939 3.34983C41.121 0.819672 35.3129 -0.313905 29.5052 0.0731811C23.6976 0.460267 18.1143 2.35309 13.3666 5.54447C8.61881 8.73585 4.88958 13.1028 2.58708 18.1672C0.284582 23.2317 -0.502437 28.7984 0.312172 34.2582C1.12678 39.7179 3.51162 44.8602 7.20563 49.1221C10.8997 53.384 15.7605 56.6013 21.256 58.4218C21.5706 58.5217 21.914 58.5012 22.2129 58.3647C22.5118 58.2282 22.7426 57.9865 22.8561 57.6912C22.9658 57.3933 22.9462 57.0664 22.8016 56.7822C22.6569 56.4981 22.3991 56.2799 22.0847 56.1758C17.0233 54.4997 12.5464 51.5372 9.14404 47.6124C5.74165 43.6877 3.54496 38.952 2.79442 33.9239C2.04388 28.8958 2.76844 23.769 4.88878 19.1048C7.00912 14.4406 10.4435 10.4189 14.8159 7.47972C19.1884 4.54059 24.3303 2.79743 29.6789 2.44106C35.0275 2.08469 40.3765 3.12885 45.1404 5.45924C49.9042 7.78963 53.8993 11.3164 56.6883 15.6535C59.4772 19.9906 60.9525 24.9708 60.9527 30.0489C60.9527 30.2839 60.9495 30.5179 60.9432 30.7509C60.935 31.0663 61.0595 31.3718 61.2891 31.6003C61.5188 31.8289 61.8349 31.9617 62.1679 31.9696C62.5 31.9737 62.8206 31.8547 63.0614 31.638C63.3021 31.4213 63.4438 31.124 63.4562 30.8096C63.4626 30.5556 63.4658 30.302 63.4658 30.0489Z" fill="#708CB1"/>
</svg>
