<svg width="22" height="18" viewBox="0 0 22 18" fill="none" xmlns="http://www.w3.org/2000/svg">
<path d="M22 2.0182C21.1819 2.36047 20.3101 2.58734 19.4012 2.69749C20.3362 2.16508 21.0499 1.32842 21.3854 0.319975C20.5136 0.815674 19.5511 1.16581 18.5254 1.36121C17.6976 0.520615 16.5179 0 15.2309 0C12.7339 0 10.7236 1.93296 10.7236 4.30262C10.7236 4.64357 10.7539 4.97142 10.8281 5.28352C7.0785 5.10911 3.76063 3.39515 1.53175 0.784201C1.14262 1.42809 0.914375 2.16508 0.914375 2.95846C0.914375 4.44818 1.71875 5.76873 2.91775 6.53326C2.19312 6.52015 1.48225 6.31951 0.88 6.00347C0.88 6.01658 0.88 6.03363 0.88 6.05068C0.88 8.141 2.44337 9.87726 4.4935 10.2772C4.12637 10.373 3.72625 10.4189 3.311 10.4189C3.02225 10.4189 2.73075 10.4031 2.45712 10.3454C3.0415 12.0489 4.69975 13.3013 6.6715 13.3419C5.137 14.4867 3.18863 15.1765 1.07938 15.1765C0.7095 15.1765 0.35475 15.1608 0 15.1175C1.99787 16.3463 4.36563 17.0479 6.919 17.0479C15.2185 17.0479 19.756 10.491 19.756 4.80749C19.756 4.61735 19.7491 4.43375 19.7395 4.25147C20.6346 3.64562 21.3867 2.88896 22 2.0182Z" fill="white"/>
</svg>
