<svg width="23" height="18" viewBox="0 0 23 18" fill="none" xmlns="http://www.w3.org/2000/svg">
<path d="M0.514705 14.4176C0.983964 16.1612 2.41951 16.4803 2.51528 16.5415C4.87786 17.2156 18.1205 17.2176 20.5185 16.5415C22.1609 16.0439 22.4626 14.518 22.5191 14.4176C23.1445 10.9324 23.1857 6.38875 22.4904 2.43401L22.5191 2.63065C22.0499 0.887027 20.6143 0.567999 20.5185 0.506802C18.1876 -0.156335 4.91042 -0.181416 2.51528 0.506802C0.872874 1.00541 0.571208 2.53032 0.514705 2.63065C-0.154707 6.29345 -0.188225 10.496 0.514705 14.4176V14.4176ZM9.21611 12.1874V4.87086L15.2169 8.53467L9.21611 12.1874Z" fill="white"/>
</svg>
